0
SECTION
2
HEADER
9
$INSUNITS
70
4
9
$ACADVER
1
AC1014
9
$HANDSEED
5
FFFF
0
ENDSEC
0
SECTION
2
TABLES
0
TABLE
2
VPORT
5
8
100
AcDbSymbolTable
0
ENDTAB
0
TABLE
2
LTYPE
5
5
100
AcDbSymbolTable
0
LTYPE
5
14
100
AcDbSymbolTableRecord
100
AcDbLinetypeTableRecord
2
BYBLOCK
70
0
0
LTYPE
5
15
100
AcDbSymbolTableRecord
100
AcDbLinetypeTableRecord
2
BYLAYER
70
0
0
ENDTAB
0
TABLE
2
LAYER
5
2
100
AcDbSymbolTable
70
2
0
LAYER
5
50
100
AcDbSymbolTableRecord
100
AcDbLayerTableRecord
2
0
70
0
6
CONTINUOUS
0
ENDTAB
0
TABLE
2
STYLE
5
3
100
AcDbSymbolTable
70
1
0
STYLE
5
11
100
AcDbSymbolTableRecord
100
AcDbTextStyleTableRecord
2
STANDARD
70
0
0
ENDTAB
0
TABLE
2
VIEW
5
6
100
AcDbSymbolTable
70
0
0
ENDTAB
0
TABLE
2
UCS
5
7
100
AcDbSymbolTable
70
0
0
ENDTAB
0
TABLE
2
APPID
5
9
100
AcDbSymbolTable
70
2
0
APPID
5
12
100
AcDbSymbolTableRecord
100
AcDbRegAppTableRecord
2
ACAD
70
0
0
ENDTAB
0
TABLE
2
DIMSTYLE
5
A
100
AcDbSymbolTable
70
1
0
ENDTAB
0
TABLE
2
BLOCK_RECORD
5
1
100
AcDbSymbolTable
70
1
0
BLOCK_RECORD
5
1F
100
AcDbSymbolTableRecord
100
AcDbBlockTableRecord
2
*MODEL_SPACE
0
BLOCK_RECORD
5
1B
100
AcDbSymbolTableRecord
100
AcDbBlockTableRecord
2
*PAPER_SPACE
0
ENDTAB
0
ENDSEC
0
SECTION
2
BLOCKS
0
BLOCK
5
20
100
AcDbEntity
100
AcDbBlockBegin
2
*MODEL_SPACE
0
ENDBLK
5
21
100
AcDbEntity
100
AcDbBlockEnd
0
BLOCK
5
1C
100
AcDbEntity
100
AcDbBlockBegin
2
*PAPER_SPACE
0
ENDBLK
5
1D
100
AcDbEntity
100
AcDbBlockEnd
0
ENDSEC
0
SECTION
2
ENTITIES
0
LINE
5
100
100
AcDbEntity
8
0
100
AcDbLine
10
66.320599990879685
20
7.0851808809626249
30
0
11
61.118794796374338
21
-1.924610006996339
31
0
0
LINE
5
101
100
AcDbEntity
8
0
100
AcDbLine
10
61.118794796374338
20
-1.924610006996339
30
0
11
50.675109819778498
21
-1.9246756403548826
31
0
0
SPLINE
5
102
100
AcDbEntity
8
0
100
AcDbSpline
70
4
71
3
72
8
73
4
74
0
42
0.000000001
43
0.0000000001
44
0.0000000001
40
-1
40
-1
40
-1
40
-1
40
0
40
0
40
0
40
0
41
1
41
1
41
1
41
1
10
50.675109819778498
20
-1.9246756403548806
30
0
10
52.573952452539686
20
-1.9246418428918879
30
0
10
54.558257079924104
20
-1.5276646138303871
30
0
10
56.627940406734481
20
-0.73343888195638574
30
0
0
SPLINE
5
103
100
AcDbEntity
8
0
100
AcDbSpline
70
4
71
3
72
8
73
4
74
0
42
0.000000001
43
0.0000000001
44
0.0000000001
40
-1
40
-1
40
-1
40
-1
40
0
40
0
40
0
40
0
41
1
41
1
41
1
41
1
10
56.627940406734481
20
-0.73343888195638574
30
0
10
58.640173136344103
20
0.060847062558688769
30
0
10
60.522124832684355
20
1.1282161532338555
30
0
10
62.274187249354853
20
2.4684397635876061
30
0
0
SPLINE
5
104
100
AcDbEntity
8
0
100
AcDbSpline
70
4
71
3
72
8
73
4
74
0
42
0.000000001
43
0.0000000001
44
0.0000000001
40
-1
40
-1
40
-1
40
-1
40
0
40
0
40
0
40
0
41
1
41
1
41
1
41
1
10
62.274187249354853
20
2.4684397635876061
30
0
10
63.997276590868985
20
3.8584974443646902
30
0
10
65.346143058335031
20
5.3973719640074425
30
0
10
66.320599990879757
20
7.0851808809625947
30
0
0
LINE
5
105
100
AcDbEntity
8
0
100
AcDbLine
10
43.089608973423672
20
52.209212378045116
30
0
11
46.485218977874624
21
58.090581428443343
31
0
0
LINE
5
106
100
AcDbEntity
8
0
100
AcDbLine
10
46.485218977874624
20
58.090581428443343
30
0
11
44.068502053073495
21
58.090561345785787
31
0
0
SPLINE
5
107
100
AcDbEntity
8
0
100
AcDbSpline
70
4
71
3
72
8
73
4
74
0
42
0.000000001
43
0.0000000001
44
0.0000000001
40
-1
40
-1
40
-1
40
-1
40
0
40
0
40
0
40
0
41
1
41
1
41
1
41
1
10
44.068502053073495
20
58.090561345785787
30
0
10
43.147770588679066
20
58.090406315491279
30
0
10
42.528608454931742
20
58.363443221264518
30
0
10
42.210910133667227
20
58.909488240513241
30
0
0
SPLINE
5
108
100
AcDbEntity
8
0
100
AcDbSpline
70
4
71
3
72
8
73
4
74
0
42
0.000000001
43
0.0000000001
44
0.0000000001
40
-1
40
-1
40
-1
40
-1
40
0
40
0
40
0
40
0
41
1
41
1
41
1
41
1
10
42.210910133667227
20
58.909488240513241
30
0
10
41.864415094572323
20
59.505267957670995
30
0
10
41.92040516201395
20
60.200231748987001
30
0
10
42.379018762744849
20
60.994573806495026
30
0
0
LINE
5
109
100
AcDbEntity
8
0
100
AcDbLine
10
42.379018762744849
20
60.994573806495026
30
0
11
63.22940305534739
21
97.10849875861868
31
0
0
SPLINE
5
110
100
AcDbEntity
8
0
100
AcDbSpline
70
4
71
3
72
8
73
4
74
0
42
0.000000001
43
0.0000000001
44
0.0000000001
40
-1
40
-1
40
-1
40
-1
40
0
40
0
40
0
40
0
41
1
41
1
41
1
41
1
10
63.22940305534739
20
97.10849875861868
30
0
10
63.688016656078297
20
97.902840816126698
30
0
10
64.42023308010701
20
98.573090714892942
30
0
10
65.425922378845456
20
99.119068947495563
30
0
0
SPLINE
5
111
100
AcDbEntity
8
0
100
AcDbSpline
70
4
71
3
72
8
73
4
74
0
42
0.000000001
43
0.0000000001
44
0.0000000001
40
-1
40
-1
40
-1
40
-1
40
0
40
0
40
0
40
0
41
1
41
1
41
1
41
1
10
65.425922378845456
20
99.119068947495563
30
0
10
66.402814959753528
20
99.714781878007216
30
0
10
67.351574223322629
20
100.01262394711419
30
0
10
68.27219547157631
20
100.01258807745309
30
0
0
LINE
5
112
100
AcDbEntity
8
0
100
AcDbLine
10
68.27219547157631
20
100.01258807745307
30
0
11
82.858754771902284
21
100.01266889242912
31
0
0
SPLINE
5
113
100
AcDbEntity
8
0
100
AcDbSpline
70
4
71
3
72
8
73
4
74
0
42
0.000000001
43
0.0000000001
44
0.0000000001
40
-1
40
-1
40
-1
40
-1
40
0
40
0
40
0
40
0
41
1
41
1
41
1
41
1
10
82.858754771902284
20
100.01266889242912
30
0
10
83.779434758603827
20
100.01259911010933
30
0
10
84.413059996113333
20
99.71478474156379
30
0
10
84.759461529842142
20
99.119068799495636
30
0
0
SPLINE
5
114
100
AcDbEntity
8
0
100
AcDbSpline
70
4
71
3
72
8
73
4
74
0
42
0.000000001
43
0.0000000001
44
0.0000000001
40
-1
40
-1
40
-1
40
-1
40
0
40
0
40
0
40
0
41
1
41
1
41
1
41
1
10
84.759461529842142
20
99.119068799495636
30
0
10
85.077275951320047
20
98.572956749757466
30
0
10
85.006780911715765
20
97.902784804204757
30
0
10
84.548277527125592
20
97.108633646652322
30
0
0
LINE
5
115
100
AcDbEntity
8
0
100
AcDbLine
10
84.548277527125592
20
97.108633646652351
30
0
11
63.69778301838231
21
60.994517794573085
31
0
0
SPLINE
5
116
100
AcDbEntity
8
0
100
AcDbSpline
70
4
71
3
72
8
73
4
74
0
42
0.000000001
43
0.0000000001
44
0.0000000001
40
-1
40
-1
40
-1
40
-1
40
0
40
0
40
0
40
0
41
1
41
1
41
1
41
1
10
63.697783018382303
20
60.994517794573085
30
0
10
62.723328205378756
20
59.306712548770918
30
0
10
62.295004056377053
20
57.767847729602188
30
0
10
62.413308094158602
20
56.377890625429252
30
0
0
SPLINE
5
117
100
AcDbEntity
8
0
100
AcDbSpline
70
4
71
3
72
8
73
4
74
0
42
0.000000001
43
0.0000000001
44
0.0000000001
40
-1
40
-1
40
-1
40
-1
40
0
40
0
40
0
40
0
41
1
41
1
41
1
41
1
10
62.413308094158602
20
56.377890625429252
30
0
10
62.559979929685063
20
55.037508852812316
30
0
10
63.209746538911702
20
53.970221425550335
30
0
10
64.362317119483365
20
53.175961284669881
30
0
0
SPLINE
5
118
100
AcDbEntity
8
0
100
AcDbSpline
70
4
71
3
72
8
73
4
74
0
42
0.000000001
43
0.0000000001
44
0.0000000001
40
-1
40
-1
40
-1
40
-1
40
-0.420806901213095
40
-0.420806901213095
40
-0.420806901213095
40
-0.420806901213095
41
1
41
1
41
1
41
1
10
64.362317119483365
20
53.175961284669881
30
0
10
64.996600600948199
20
52.715961914563614
30
0
10
65.775300346419584
20
52.389193957378559
30
0
10
66.698489138170089
20
52.195609685844857
30
0
0
SPLINE
5
119
100
AcDbEntity
8
0
100
AcDbSpline
70
4
71
3
72
8
73
4
74
0
42
0.000000001
43
0.0000000001
44
0.0000000001
40
-0.92210067723599398
40
-0.92210067723599398
40
-0.92210067723599398
40
-0.92210067723599398
40
0
40
0
40
0
40
0
41
1
41
1
41
1
41
1
10
66.698489138170117
20
52.195609685844886
30
0
10
64.469622846005336
20
52.088706138874116
30
0
10
61.924183375135335
20
51.348499944086143
30
0
10
59.061955361554652
20
49.975322680238925
30
0
0
SPLINE
5
120
100
AcDbEntity
8
0
100
AcDbSpline
70
4
71
3
72
8
73
4
74
0
42
0.000000001
43
0.0000000001
44
0.0000000001
40
-1
40
-1
40
-1
40
-1
40
0
40
0
40
0
40
0
41
1
41
1
41
1
41
1
10
59.061955361554652
20
49.975322680238925
30
0
10
57.562574168651238
20
51.464607126908646
30
0
10
55.662187123036936
20
52.209189196675368
30
0
10
53.360554463908571
20
52.209187736020731
30
0
0
LINE
5
121
100
AcDbEntity
8
0
100
AcDbLine
10
53.360554463908571
20
52.209187736020731
30
0
11
43.089608973423672
21
52.209212378045116
31
0
0
SPLINE
5
122
100
AcDbEntity
8
0
100
AcDbSpline
70
4
71
3
72
8
73
4
74
0
42
0.000000001
43
0.0000000001
44
0.0000000001
40
-1
40
-1
40
-1
40
-1
40
0
40
0
40
0
40
0
41
1
41
1
41
1
41
1
10
32.893838059548742
20
-1.3290432840541837
30
0
10
33.815311351402485
20
-1.7261449358510983
30
0
10
34.851623644541625
20
-1.9247804672942335
30
0
10
36.002368518410925
20
-1.9247678512261799
30
0
0
LINE
5
123
100
AcDbEntity
8
0
100
AcDbLine
10
36.002368518410925
20
-1.9247678512261799
30
0
11
22.106334125259508
21
-1.9248551808814107
31
0
0
SPLINE
5
124
100
AcDbEntity
8
0
100
AcDbSpline
70
4
71
3
72
8
73
4
74
0
42
0.000000001
43
0.0000000001
44
0.0000000001
40
-1
40
-1
40
-1
40
-1
40
0
40
0
40
0
40
0
41
1
41
1
41
1
41
1
10
22.106334125259504
20
-1.9248551808814105
30
0
10
23.257148864724396
20
-1.9248231703794971
30
0
10
24.5513701529099
20
-1.7262154925573756
30
0
10
25.988913968339581
20
-1.3290081148414323
30
0
0
SPLINE
5
125
100
AcDbEntity
8
0
100
AcDbSpline
70
4
71
3
72
8
73
4
74
0
42
0.000000001
43
0.0000000001
44
0.0000000001
40
-1
40
-1
40
-1
40
-1
40
0
40
0
40
0
40
0
41
1
41
1
41
1
41
1
10
25.988913968339574
20
-1.3290081148414332
30
0
10
27.426651366130528
20
-0.93192253551192983
30
0
10
28.892657853130395
20
-0.38586078782560962
30
0
10
30.387171980927
20
0.30914096896020793
30
0
0
SPLINE
5
126
100
AcDbEntity
8
0
100
AcDbSpline
70
4
71
3
72
8
73
4
74
0
42
0.000000001
43
0.0000000001
44
0.0000000001
40
-1
40
-1
40
-1
40
-1
40
0
40
0
40
0
40
0
41
1
41
1
41
1
41
1
10
30.387171980927
20
0.30914096896020793
30
0
10
31.079172998332499
20
-0.38584651610915632
30
0
10
31.914861957770935
20
-0.93197609378807933
30
0
10
32.893838059548742
20
-1.3290432840541837
30
0
0
SPLINE
5
127
100
AcDbEntity
8
0
100
AcDbSpline
70
4
71
3
72
8
73
4
74
0
42
0.000000001
43
0.0000000001
44
0.0000000001
40
-1
40
-1
40
-1
40
-1
40
0
40
0
40
0
40
0
41
1
41
1
41
1
41
1
10
31.710117897591221
20
7.0851138677342878
30
0
10
31.251549866995447
20
6.290850740015598
30
0
10
30.533677188750175
20
5.5959706077687237
30
0
10
29.556872900637245
20
5.0002336231766193
30
0
0
SPLINE
5
128
100
AcDbEntity
8
0
100
AcDbSpline
70
4
71
3
72
8
73
4
74
0
42
0.000000001
43
0.0000000001
44
0.0000000001
40
-1
40
-1
40
-1
40
-1
40
0
40
0
40
0
40
0
41
1
41
1
41
1
41
1
10
29.556872900637245
20
5.0002336231766193
30
0
10
28.55104304068
20
4.4542313039123922
30
0
10
27.587939968164665
20
4.1811528899785131
30
0
10
26.667296464728722
20
4.1811502125331836
30
0
0
LINE
5
129
100
AcDbEntity
8
0
100
AcDbLine
10
26.667296464728722
20
4.1811502125331836
30
0
11
13.030199811836116
21
4.1811578837720065
31
0
0
SPLINE
5
130
100
AcDbEntity
8
0
100
AcDbSpline
70
4
71
3
72
8
73
4
74
0
42
0.000000001
43
0.0000000001
44
0.0000000001
40
-1
40
-1
40
-1
40
-1
40
0
40
0
40
0
40
0
41
1
41
1
41
1
41
1
10
13.03019981183612
20
4.1811578837720065
30
0
10
12.109555849506052
20
4.1811554712693235
30
0
10
11.49038470770876
20
4.4541767746423409
30
0
10
11.172715798809174
20
5.0002292870075298
30
0
0
SPLINE
5
131
100
AcDbEntity
8
0
100
AcDbSpline
70
4
71
3
72
8
73
4
74
0
42
0.000000001
43
0.0000000001
44
0.0000000001
40
-1
40
-1
40
-1
40
-1
40
0
40
0
40
0
40
0
41
1
41
1
41
1
41
1
10
11.172715798809174
20
5.0002292870075298
30
0
10
10.826144258549526
20
5.5959210106256378
30
0
10
10.882148103008742
20
6.2909086644360865
30
0
10
11.340716663489815
20
7.0851727099430235
30
0
0
LINE
5
132
100
AcDbEntity
8
0
100
AcDbLine
10
11.340716663489815
20
7.0851727099430235
30
0
11
32.191245084891797
21
43.199347300470158
31
0
0
SPLINE
5
133
100
AcDbEntity
8
0
100
AcDbSpline
70
4
71
3
72
8
73
4
74
0
42
0.000000001
43
0.0000000001
44
0.0000000001
40
-1
40
-1
40
-1
40
-1
40
0
40
0
40
0
40
0
41
1
41
1
41
1
41
1
10
32.191245084891804
20
43.199347300470158
30
0
10
32.649746349940784
20
43.99349478686959
30
0
10
33.381962773969498
20
44.66374468563582
30
0
10
34.38767346580233
20
45.2097154618003
30
0
0
SPLINE
5
134
100
AcDbEntity
8
0
100
AcDbSpline
70
4
71
3
72
8
73
4
74
0
42
0.000000001
43
0.0000000001
44
0.0000000001
40
-1
40
-1
40
-1
40
-1
40
0
40
0
40
0
40
0
41
1
41
1
41
1
41
1
10
34.38767346580233
20
45.2097154618003
30
0
10
35.364547232051308
20
45.805439254960461
30
0
10
36.313302256538066
20
46.103273981761433
30
0
10
37.233923963685875
20
46.103237847157708
30
0
0
LINE
5
135
100
AcDbEntity
8
0
100
AcDbLine
10
37.233923963685875
20
46.103237847157708
30
0
11
50.8710656568283
21
46.103308187919971
31
0
0
SPLINE
5
136
100
AcDbEntity
8
0
100
AcDbSpline
70
4
71
3
72
8
73
4
74
0
42
0.000000001
43
0.0000000001
44
0.0000000001
40
-1
40
-1
40
-1
40
-1
40
0
40
0
40
0
40
0
41
1
41
1
41
1
41
1
10
50.8710656568283
20
46.103308187919971
30
0
10
51.791686905081981
20
46.103272318258881
30
0
10
52.425216692613681
20
45.805513057783728
30
0
10
52.771808842333414
20
45.20968216865122
30
0
0
SPLINE
5
137
100
AcDbEntity
8
0
100
AcDbSpline
70
4
71
3
72
8
73
4
74
0
42
0.000000001
43
0.0000000001
44
0.0000000001
40
-1
40
-1
40
-1
40
-1
40
0
40
0
40
0
40
0
41
1
41
1
41
1
41
1
10
52.771808842333414
20
45.20968216865122
30
0
10
53.089430528279216
20
44.663681394824401
30
0
10
53.019126388630511
20
43.99339923313093
30
0
10
52.560625123581531
20
43.199251746731491
30
0
0
LINE
5
138
100
AcDbEntity
8
0
100
AcDbLine
10
52.560625123581531
20
43.199251746731484
30
0
11
31.710117897591221
21
7.0851138677342878
31
0
0
SPLINE
5
139
100
AcDbEntity
8
0
100
AcDbSpline
70
4
71
3
72
8
73
4
74
0
42
0.000000001
43
0.0000000001
44
0.0000000001
40
-1
40
-1
40
-1
40
-1
40
0
40
0
40
0
40
0
41
1
41
1
41
1
41
1
10
59.243216011468711
20
7.08520945929597
30
0
10
58.784603470508401
20
6.290869237364447
30
0
10
58.066888839330616
20
5.5958219861054435
30
0
10
57.089880158209169
20
5.0001760860832176
30
0
0
SPLINE
5
140
100
AcDbEntity
8
0
100
AcDbSpline
70
4
71
3
72
8
73
4
74
0
42
0.000000001
43
0.0000000001
44
0.0000000001
40
-1
40
-1
40
-1
40
-1
40
0
40
0
40
0
40
0
41
1
41
1
41
1
41
1
10
57.089880158209169
20
5.0001760860832176
30
0
10
56.084287544148538
20
4.4541395851204868
30
0
10
55.121066236587851
20
4.1810768143623198
30
0
10
54.200327511438431
20
4.1811805093407886
30
0
0
LINE
5
141
100
AcDbEntity
8
0
100
AcDbLine
10
54.200327511438431
20
4.1811805093407886
30
0
11
39.527575612365013
21
4.1810699427045304
31
0
0
SPLINE
5
142
100
AcDbEntity
8
0
100
AcDbSpline
70
4
71
3
72
8
73
4
74
0
42
0.000000001
43
0.0000000001
44
0.0000000001
40
-1
40
-1
40
-1
40
-1
40
0
40
0
40
0
40
0
41
1
41
1
41
1
41
1
10
39.527575612365013
20
4.1810699427045304
30
0
10
38.606838722792091
20
4.1811725779124203
30
0
10
37.9878521705648
20
4.4541130065184467
30
0
10
37.670039584663414
20
5.0002239964860218
30
0
0
SPLINE
5
143
100
AcDbEntity
8
0
100
AcDbSpline
70
4
71
3
72
8
73
4
74
0
42
0.000000001
43
0.0000000001
44
0.0000000001
40
-1
40
-1
40
-1
40
-1
40
0
40
0
40
0
40
0
41
1
41
1
41
1
41
1
10
37.670039584663414
20
5.0002239964860218
30
0
10
37.323638334899265
20
5.5959446694777712
30
0
10
37.379494689221353
20
6.2909905549699889
30
0
10
37.837997014040916
20
7.0851398769459237
30
0
0
LINE
5
144
100
AcDbEntity
8
0
100
AcDbLine
10
37.837997014040909
20
7.0851398769459237
30
0
11
58.688491522784226
21
43.199255729025168
31
0
0
SPLINE
5
145
100
AcDbEntity
8
0
100
AcDbSpline
70
4
71
3
72
8
73
4
74
0
42
0.000000001
43
0.0000000001
44
0.0000000001
40
-1
40
-1
40
-1
40
-1
40
0
40
0
40
0
40
0
41
1
41
1
41
1
41
1
10
58.688491522784219
20
43.199255729025168
30
0
10
59.147105123515111
20
43.993597786533201
30
0
10
59.87934716406378
20
44.663578362320607
30
0
10
60.885050770071068
20
45.209802867891838
30
0
0
SPLINE
5
146
100
AcDbEntity
8
0
100
AcDbSpline
70
4
71
3
72
8
73
4
74
0
42
0.000000001
43
0.0000000001
44
0.0000000001
40
-1
40
-1
40
-1
40
-1
40
0
40
0
40
0
40
0
41
1
41
1
41
1
41
1
10
60.885050770071068
20
45.209802867891838
30
0
10
61.86205761561601
20
45.805449827684654
30
0
10
62.810643417206236
20
46.103392045111818
30
0
10
63.731380306779158
20
46.103289409903923
30
0
0
LINE
5
147
100
AcDbEntity
8
0
100
AcDbLine
10
63.731380306779172
20
46.103289409903923
30
0
11
78.404020929941268
21
46.103207241008093
31
0
0
SPLINE
5
148
100
AcDbEntity
8
0
100
AcDbSpline
70
4
71
3
72
8
73
4
74
0
42
0.000000001
43
0.0000000001
44
0.0000000001
40
-1
40
-1
40
-1
40
-1
40
0
40
0
40
0
40
0
41
1
41
1
41
1
41
1
10
78.404020929941254
20
46.1032072410081
30
0
10
79.324869871231414
20
46.103294445985213
30
0
10
79.958495108740919
20
45.805480077439704
30
0
10
80.304892403387399
20
45.20975679306553
30
0
0
SPLINE
5
149
100
AcDbEntity
8
0
100
AcDbSpline
70
4
71
3
72
8
73
4
74
0
42
0.000000001
43
0.0000000001
44
0.0000000001
40
-1
40
-1
40
-1
40
-1
40
0
40
0
40
0
40
0
41
1
41
1
41
1
41
1
10
80.304892403387399
20
45.20975679306553
30
0
10
80.62270682486529
20
44.663644743327367
30
0
10
80.55221178526098
20
43.993472797774658
30
0
10
80.093712639753164
20
43.199328982528215
30
0
0
LINE
5
150
100
AcDbEntity
8
0
100
AcDbLine
10
80.093712639753164
20
43.199328982528222
30
0
11
59.243216011468711
21
7.08520945929597
31
0
0
SPLINE
5
151
100
AcDbEntity
8
0
100
AcDbSpline
70
4
71
3
72
8
73
4
74
0
42
0.000000001
43
0.0000000001
44
0.0000000001
40
-1
40
-1
40
-1
40
-1
40
0
40
0
40
0
40
0
41
1
41
1
41
1
41
1
10
121.32442210191903
20
114.61301260311031
30
0
10
120.86580426210577
20
113.8186632032963
30
0
10
120.14809281023975
20
113.12362145876679
30
0
10
119.17107989003597
20
112.52796821643858
30
0
0
SPLINE
5
152
100
AcDbEntity
8
0
100
AcDbSpline
70
4
71
3
72
8
73
4
74
0
42
0.000000001
43
0.0000000001
44
0.0000000001
40
-1
40
-1
40
-1
40
-1
40
0
40
0
40
0
40
0
41
1
41
1
41
1
41
1
10
119.17107989003597
20
112.52796821643858
30
0
10
118.16549257482826
20
111.98194089335831
30
0
10
117.20227444657934
20
111.70888362932965
30
0
10
116.28153572142992
20
111.70898732430813
30
0
0
LINE
5
153
100
AcDbEntity
8
0
100
AcDbLine
10
116.28153572142992
20
111.70898732430813
30
0
11
101.60878064304475
21
111.70887125094238
31
0
0
SPLINE
5
154
100
AcDbEntity
8
0
100
AcDbSpline
70
4
71
3
72
8
73
4
74
0
42
0.000000001
43
0.0000000001
44
0.0000000001
40
-1
40
-1
40
-1
40
-1
40
0
40
0
40
0
40
0
41
1
41
1
41
1
41
1
10
101.60878064304475
20
111.70887125094238
30
0
10
100.68804375347182
20
111.70897388615026
30
0
10
100.0690593207857
20
111.98191798590929
30
0
10
99.751242495801975
20
112.52802163357087
30
0
0
SPLINE
5
155
100
AcDbEntity
8
0
100
AcDbSpline
70
4
71
3
72
8
73
4
74
0
42
0.000000001
43
0.0000000001
44
0.0000000001
40
-1
40
-1
40
-1
40
-1
40
0
40
0
40
0
40
0
41
1
41
1
41
1
41
1
10
99.751242495801975
20
112.52802163357087
30
0
10
99.404839126496668
20
113.12373863540962
30
0
10
99.460697600359907
20
113.81878819205484
30
0
10
99.919196745867737
20
114.61293200730128
30
0
0
LINE
5
156
100
AcDbEntity
8
0
100
AcDbLine
10
99.919196745867737
20
114.61293200730131
30
0
11
120.76969125461102
21
150.72704785938055
31
0
0
SPLINE
5
157
100
AcDbEntity
8
0
100
AcDbSpline
70
4
71
3
72
8
73
4
74
0
42
0.000000001
43
0.0000000001
44
0.0000000001
40
-1
40
-1
40
-1
40
-1
40
0
40
0
40
0
40
0
41
1
41
1
41
1
41
1
10
120.76969125461102
20
150.72704785938055
30
0
10
121.22830909442426
20
151.52139725919454
30
0
10
121.96054689589059
20
152.19137049267599
30
0
10
122.96625474098022
20
152.7376023405532
30
0
0
SPLINE
5
158
100
AcDbEntity
8
0
100
AcDbSpline
70
4
71
3
72
8
73
4
74
0
42
0.000000001
43
0.0000000001
44
0.0000000001
40
-1
40
-1
40
-1
40
-1
40
0
40
0
40
0
40
0
41
1
41
1
41
1
41
1
10
122.96625474098022
20
152.7376023405532
30
0
10
123.9432658256075
20
153.333256642652
30
0
10
124.89184738811538
20
153.63119151777317
30
0
10
125.8125842776883
20
153.63108888256528
30
0
0
LINE
5
159
100
AcDbEntity
8
0
100
AcDbLine
10
125.8125842776883
20
153.63108888256528
30
0
11
140.48533087790881
21
153.63119027131904
31
0
0
SPLINE
5
160
100
AcDbEntity
8
0
100
AcDbSpline
70
4
71
3
72
8
73
4
74
0
42
0.000000001
43
0.0000000001
44
0.0000000001
40
-1
40
-1
40
-1
40
-1
40
0
40
0
40
0
40
0
41
1
41
1
41
1
41
1
10
140.48533087790878
20
153.63119027131904
30
0
10
141.40606960305826
20
153.63108657634055
30
0
10
142.03969907965006
20
153.33327955010103
30
0
10
142.38610061337889
20
152.73756360803287
30
0
0
SPLINE
5
161
100
AcDbEntity
8
0
100
AcDbSpline
70
4
71
3
72
8
73
4
74
0
42
0.000000001
43
0.0000000001
44
0.0000000001
40
-1
40
-1
40
-1
40
-1
40
0
40
0
40
0
40
0
41
1
41
1
41
1
41
1
10
142.38610061337889
20
152.73756360803287
30
0
10
142.70391079577445
20
152.19144421598872
30
0
10
142.63341575617011
20
151.52127227043601
30
0
10
142.17491661066231
20
150.72712845518959
30
0
0
LINE
5
162
100
AcDbEntity
8
0
100
AcDbLine
10
142.17491661066234
20
150.72712845518959
30
0
11
121.32442210191903
21
114.61301260311031
31
0
0
SPLINE
5
163
100
AcDbEntity
8
0
100
AcDbSpline
70
4
71
3
72
8
73
4
74
0
42
0.000000001
43
0.0000000001
44
0.0000000001
40
-1
40
-1
40
-1
40
-1
40
0
40
0
40
0
40
0
41
1
41
1
41
1
41
1
10
93.791336705288558
20
114.61293903846658
30
0
10
93.3327188654753
20
113.81858963865257
30
0
10
92.614926729794433
20
113.1238490102194
30
0
10
91.638106545122739
20
112.52808449197984
30
0
0
SPLINE
5
164
100
AcDbEntity
8
0
100
AcDbSpline
70
4
71
3
72
8
73
4
74
0
42
0.000000001
43
0.0000000001
44
0.0000000001
40
-1
40
-1
40
-1
40
-1
40
0
40
0
40
0
40
0
41
1
41
1
41
1
41
1
10
91.638106545122739
20
112.52808449197984
30
0
10
90.632216278242197
20
111.98197754485534
30
0
10
89.669089360888734
20
111.70885783045031
30
0
10
88.748468112635067
20
111.70889370011139
30
0
0
LINE
5
165
100
AcDbEntity
8
0
100
AcDbLine
10
88.748468112635081
20
111.7088937001114
30
0
11
75.111436635633368
21
111.70901425930474
31
0
0
SPLINE
5
166
100
AcDbEntity
8
0
100
AcDbSpline
70
4
71
3
72
8
73
4
74
0
42
0.000000001
43
0.0000000001
44
0.0000000001
40
-1
40
-1
40
-1
40
-1
40
0
40
0
40
0
40
0
41
1
41
1
41
1
41
1
10
75.111436635633368
20
111.70901425930472
30
0
10
74.190704712344825
20
111.70885949395287
30
0
10
73.571542578597487
20
111.98189639972611
30
0
10
73.253973288132812
20
112.52812145628191
30
0
0
SPLINE
5
167
100
AcDbEntity
8
0
100
AcDbSpline
70
4
71
3
72
8
73
4
74
0
42
0.000000001
43
0.0000000001
44
0.0000000001
40
-1
40
-1
40
-1
40
-1
40
0
40
0
40
0
40
0
41
1
41
1
41
1
41
1
10
73.253973288132812
20
112.52812145628191
30
0
10
72.907348759343961
20
113.12372140107522
30
0
10
72.963338826785588
20
113.81868519239121
30
0
10
73.421952427516473
20
114.61302724989923
30
0
0
LINE
5
168
100
AcDbEntity
8
0
100
AcDbLine
10
73.421952427516473
20
114.61302724989922
30
0
11
94.272446936259783
21
150.72714310197847
31
0
0
SPLINE
5
169
100
AcDbEntity
8
0
100
AcDbSpline
70
4
71
3
72
8
73
4
74
0
42
0.000000001
43
0.0000000001
44
0.0000000001
40
-1
40
-1
40
-1
40
-1
40
0
40
0
40
0
40
0
41
1
41
1
41
1
41
1
10
94.272446936259783
20
150.7271431019785
30
0
10
94.730946081767584
20
151.52128691722496
30
0
10
95.463166744878635
20
152.19154415829715
30
0
10
96.468879556252631
20
152.73751860561464
30
0
0
SPLINE
5
170
100
AcDbEntity
8
0
100
AcDbSpline
70
4
71
3
72
8
73
4
74
0
42
0.000000001
43
0.0000000001
44
0.0000000001
40
-1
40
-1
40
-1
40
-1
40
0
40
0
40
0
40
0
41
1
41
1
41
1
41
1
10
96.468879556252631
20
152.73751860561464
30
0
10
97.445749083419287
20
153.33323505646882
30
0
10
98.394504107906059
20
153.63106978326979
30
0
10
99.315125815053847
20
153.63103364866606
30
0
0
LINE
5
171
100
AcDbEntity
8
0
100
AcDbLine
10
99.315125815053818
20
153.63103364866603
30
0
11
112.95226750819629
21
153.63110398942831
31
0
0
SPLINE
5
172
100
AcDbEntity
8
0
100
AcDbSpline
70
4
71
3
72
8
73
4
74
0
42
0.000000001
43
0.0000000001
44
0.0000000001
40
-1
40
-1
40
-1
40
-1
40
0
40
0
40
0
40
0
41
1
41
1
41
1
41
1
10
112.95226750819629
20
153.63110398942831
30
0
10
113.87288875644997
20
153.63106811976724
30
0
10
114.50642278306401
20
153.33331620159805
30
0
10
114.85300857416023
20
152.73747429900658
30
0
0
SPLINE
5
173
100
AcDbEntity
8
0
100
AcDbSpline
70
4
71
3
72
8
73
4
74
0
42
0.000000001
43
0.0000000001
44
0.0000000001
40
-1
40
-1
40
-1
40
-1
40
0
40
0
40
0
40
0
41
1
41
1
41
1
41
1
10
114.85300857416023
20
152.73747429900658
30
0
10
115.17063449918837
20
152.19148086748572
30
0
10
115.10033035953967
20
151.52119870579227
30
0
10
114.64183121403184
20
150.72705489054582
30
0
0
LINE
5
174
100
AcDbEntity
8
0
100
AcDbLine
10
114.64183121403184
20
150.72705489054582
30
0
11
93.791336705288558
21
114.61293903846658
31
0
0
LINE
5
175
100
AcDbEntity
8
0
100
AcDbLine
10
151.20226287836252
20
166.36295084836354
30
0
11
135.61828064975555
21
207.54024542994313
31
0
0
LINE
5
176
100
AcDbEntity
8
0
100
AcDbLine
10
135.61828064975555
20
207.54024542994313
30
0
11
171.60966533721358
21
207.5401189066018
31
0
0
SPLINE
5
177
100
AcDbEntity
8
0
100
AcDbSpline
70
4
71
3
72
8
73
4
74
0
42
0.000000001
43
0.0000000001
44
0.0000000001
40
-1
40
-1
40
-1
40
-1
40
0
40
0
40
0
40
0
41
1
41
1
41
1
41
1
10
171.60966533721361
20
207.5401189066018
30
0
10
172.53029384622232
20
207.53982431166773
30
0
10
173.16447440351789
20
207.24297178520615
30
0
10
173.51109636952822
20
206.64763764304911
30
0
0
SPLINE
5
178
100
AcDbEntity
8
0
100
AcDbSpline
70
4
71
3
72
8
73
4
74
0
42
0.000000001
43
0.0000000001
44
0.0000000001
40
-1
40
-1
40
-1
40
-1
40
0
40
0
40
0
40
0
41
1
41
1
41
1
41
1
10
173.51109636952822
20
206.64763764304911
30
0
10
173.82813503893854
20
206.10018195131585
30
0
10
173.75763999933423
20
205.43001000576317
30
0
10
173.29980215067087
20
204.63701159025024
30
0
0
LINE
5
179
100
AcDbEntity
8
0
100
AcDbLine
10
173.29980215067093
20
204.63701159025021
30
0
11
151.20226287836252
21
166.36295084836354
31
0
0
LINE
5
180
100
AcDbEntity
8
0
100
AcDbLine
10
142.22755032613696
20
165.61836197087487
30
0
11
106.23599576630204
21
165.61833203680462
31
0
0
SPLINE
5
181
100
AcDbEntity
8
0
100
AcDbSpline
70
4
71
3
72
8
73
4
74
0
42
0.000000001
43
0.0000000001
44
0.0000000001
40
-1
40
-1
40
-1
40
-1
40
0
40
0
40
0
40
0
41
1
41
1
41
1
41
1
10
106.23599576630204
20
165.61833203680462
30
0
10
105.31537405915422
20
165.61836817140835
30
0
10
104.69620768632454
20
165.8913977348756
30
0
10
104.37853241880147
20
166.43743923378182
30
0
0
SPLINE
5
182
100
AcDbEntity
8
0
100
AcDbSpline
70
4
71
3
72
8
73
4
74
0
42
0.000000001
43
0.0000000001
44
0.0000000001
40
-1
40
-1
40
-1
40
-1
40
0
40
0
40
0
40
0
41
1
41
1
41
1
41
1
10
104.37853241880147
20
166.43743923378182
30
0
10
104.03190365093027
20
167.03303183626915
30
0
10
104.08789795745423
20
167.72800296989115
30
0
10
104.54650731910279
20
168.52233768509313
30
0
0
LINE
5
183
100
AcDbEntity
8
0
100
AcDbLine
10
104.54650731910279
20
168.52233768509313
30
0
11
126.60048578132205
21
206.72094889068663
31
0
0
LINE
5
184
100
AcDbEntity
8
0
100
AcDbLine
10
126.60048578132205
20
206.72094889068663
30
0
11
142.22755032613696
21
165.61836197087487
31
0
0
CIRCLE
5
185
100
AcDbEntity
8
0
100
AcDbCircle
10
-11.443209707074658
20
-6.9250660231537449
30
0
40
2.0000000000000018
210
0
220
0
230
1
0
CIRCLE
5
186
100
AcDbEntity
8
0
100
AcDbCircle
10
189.75679029292536
20
208.88293397684623
30
0
40
3.0000000000000071
210
0
220
0
230
1
0
SPLINE
5
187
100
AcDbEntity
8
0
100
AcDbSpline
70
4
71
3
72
8
73
4
74
0
42
0.000000001
43
0.0000000001
44
0.0000000001
40
-1
40
-1
40
-1
40
-1
40
0
40
0
40
0
40
0
41
1
41
1
41
1
41
1
10
124.35538910072282
20
109.99623556509596
30
0
10
126.07847632269579
20
111.38628957472007
30
0
10
127.42735126832653
20
112.92517877897478
30
0
10
128.40180608133008
20
114.61298402477694
30
0
0
LINE
5
188
100
AcDbEntity
8
0
100
AcDbLine
10
128.40180608133008
20
114.61298402477695
30
0
11
123.49752694467227
21
106.11852338558576
31
0
0
LINE
5
189
100
AcDbEntity
8
0
100
AcDbLine
10
123.49752694467227
20
106.11852338558576
30
0
11
116.61440804245402
21
106.11855117948068
31
0
0
SPLINE
5
190
100
AcDbEntity
8
0
100
AcDbSpline
70
4
71
3
72
8
73
4
74
0
42
0.000000001
43
0.0000000001
44
0.0000000001
40
-0.34219938376407949
40
-0.34219938376407949
40
-0.34219938376407949
40
-0.34219938376407949
40
0
40
0
40
0
40
0
41
1
41
1
41
1
41
1
10
116.61440804245402
20
106.11855117948068
30
0
10
117.30265285354145
20
106.297310253763
30
0
10
118.00089895885172
20
106.5225751991116
30
0
10
118.70914331787304
20
106.79435875512846
30
0
0
SPLINE
5
191
100
AcDbEntity
8
0
100
AcDbSpline
70
4
71
3
72
8
73
4
74
0
42
0.000000001
43
0.0000000001
44
0.0000000001
40
-1
40
-1
40
-1
40
-1
40
0
40
0
40
0
40
0
41
1
41
1
41
1
41
1
10
118.70914331787304
20
106.79435875512846
30
0
10
120.72137604748265
20
107.58864469964352
30
0
10
122.6033298633641
20
108.65601746147171
30
0
10
124.35538910072282
20
109.99623556509596
30
0
0
SPLINE
5
192
100
AcDbEntity
8
0
100
AcDbSpline
70
4
71
3
72
8
73
4
74
0
42
0.000000001
43
0.0000000001
44
0.0000000001
40
-1
40
-1
40
-1
40
-1
40
0
40
0
40
0
40
0
41
1
41
1
41
1
41
1
10
155.48006268661456
20
163.90575158485743
30
0
10
157.20303969244679
20
165.29561469452591
30
0
10
158.55201637605359
20
166.83468011412427
30
0
10
159.52658140519787
20
168.52267625988202
30
0
0
LINE
5
193
100
AcDbEntity
8
0
100
AcDbLine
10
159.52658140519787
20
168.52267625988202
30
0
11
149.2523005900733
21
150.72709987685622
31
0
0
SPLINE
5
194
100
AcDbEntity
8
0
100
AcDbSpline
70
4
71
3
72
8
73
4
74
0
42
0.000000001
43
0.0000000001
44
0.0000000001
40
-1
40
-1
40
-1
40
-1
40
0
40
0
40
0
40
0
41
1
41
1
41
1
41
1
10
149.25230059007336
20
150.72709987685619
30
0
10
150.19808225015333
20
152.36524176498148
30
0
10
150.59754051069933
20
153.8545545023847
30
0
10
150.45076453369097
20
155.19475165758146
30
0
0
SPLINE
5
195
100
AcDbEntity
8
0
100
AcDbSpline
70
4
71
3
72
8
73
4
74
0
42
0.000000001
43
0.0000000001
44
0.0000000001
40
-1
40
-1
40
-1
40
-1
40
0
40
0
40
0
40
0
41
1
41
1
41
1
41
1
10
150.45076453369097
20
155.19475165758146
30
0
10
150.27500806313216
20
156.5847700341661
30
0
10
149.63976836239357
20
157.67676946227854
30
0
10
148.54476283424574
20
158.47116763277953
30
0
0
SPLINE
5
196
100
AcDbEntity
8
0
100
AcDbSpline
70
4
71
3
72
8
73
4
74
0
42
0.000000001
43
0.0000000001
44
0.0000000001
40
-1
40
-1
40
-1
40
-1
40
-0.30229600313667127
40
-0.30229600313667127
40
-0.30229600313667127
40
-0.30229600313667127
41
1
41
1
41
1
41
1
10
148.54476283424574
20
158.47116763277953
30
0
10
147.76061214928657
20
159.05997130801362
30
0
10
146.78774516754396
20
159.44329895934385
30
0
10
145.6263373929543
20
159.6213019555681
30
0
0
SPLINE
5
197
100
AcDbEntity
8
0
100
AcDbSpline
70
4
71
3
72
8
73
4
74
0
42
0.000000001
43
0.0000000001
44
0.0000000001
40
-0.69770399686243867
40
-0.69770399686243867
40
-0.69770399686243867
40
-0.69770399686243867
40
0
40
0
40
0
40
0
41
1
41
1
41
1
41
1
10
145.62633739295953
20
159.62130195556878
30
0
10
146.98721874141384
20
159.78879732404855
30
0
10
148.38970519800301
20
160.14959243107643
30
0
10
149.8338084256001
20
160.70386009027797
30
0
0
SPLINE
5
198
100
AcDbEntity
8
0
100
AcDbSpline
70
4
71
3
72
8
73
4
74
0
42
0.000000001
43
0.0000000001
44
0.0000000001
40
-1
40
-1
40
-1
40
-1
40
0
40
0
40
0
40
0
41
1
41
1
41
1
41
1
10
149.8338084256001
20
160.70386009027797
30
0
10
151.84593093906898
20
161.49795513483747
30
0
10
153.7278847549504
20
162.56532789666556
30
0
10
155.48006268661456
20
163.90575158485743
30
0
0
SPLINE
5
199
100
AcDbEntity
8
0
100
AcDbSpline
70
4
71
3
72
8
73
4
74
0
42
0.000000001
43
0.0000000001
44
0.0000000001
40
-0.68301933148150362
40
-0.68301933148150362
40
-0.68301933148150362
40
-0.68301933148150362
40
0
40
0
40
0
40
0
41
1
41
1
41
1
41
1
10
126.98209793282129
20
159.51245017261732
30
0
10
125.20952093211721
20
159.19002459562734
30
0
10
123.2632746110589
20
158.52026839754535
30
0
10
121.14315933246377
20
157.50312215290026
30
0
0
SPLINE
5
200
100
AcDbEntity
8
0
100
AcDbSpline
70
4
71
3
72
8
73
4
74
0
42
0.000000001
43
0.0000000001
44
0.0000000001
40
-1
40
-1
40
-1
40
-1
40
-0.31704070024295317
40
-0.31704070024295317
40
-0.31704070024295317
40
-0.31704070024295317
41
1
41
1
41
1
41
1
10
121.14315933246377
20
157.50312215290026
30
0
10
120.11914589801029
20
158.52024783023302
30
0
10
118.90808400645312
20
159.19000916801218
30
0
10
117.50990538306807
20
159.51245805895351
30
0
0
LINE
5
201
100
AcDbEntity
8
0
100
AcDbLine
10
117.50990538306806
20
159.51245805895348
30
0
11
126.98209793282129
21
159.51245017261732
31
0
0
SPLINE
5
202
100
AcDbEntity
8
0
100
AcDbSpline
70
4
71
3
72
8
73
4
74
0
42
0.000000001
43
0.0000000001
44
0.0000000001
40
-0.12316797004696704
40
-0.12316797004696704
40
-0.12316797004696704
40
-0.12316797004696704
40
0
40
0
40
0
40
0
41
1
41
1
41
1
41
1
10
87.545438390767856
20
106.06104041734363
30
0
10
87.718152226177892
20
106.10393617637203
30
0
10
87.893041500263408
20
106.1498462807823
30
0
10
88.070106281772297
20
106.19877116647845
30
0
0
SPLINE
5
203
100
AcDbEntity
8
0
100
AcDbSpline
70
4
71
3
72
8
73
4
74
0
42
0.000000001
43
0.0000000001
44
0.0000000001
40
-1
40
-1
40
-1
40
-1
40
0
40
0
40
0
40
0
41
1
41
1
41
1
41
1
10
88.070106281772297
20
106.19877116647845
30
0
10
89.507864874974942
20
106.59589345733787
30
0
10
90.973885138992401
20
107.14197906751863
30
0
10
92.468353166768594
20
107.83690097672688
30
0
0
SPLINE
5
204
100
AcDbEntity
8
0
100
AcDbSpline
70
4
71
3
72
8
73
4
74
0
42
0.000000001
43
0.0000000001
44
0.0000000001
40
-1
40
-1
40
-1
40
-1
40
0
40
0
40
0
40
0
41
1
41
1
41
1
41
1
10
92.468353166768594
20
107.83690097672688
30
0
10
93.160386507176895
20
107.14196947674066
30
0
10
93.99607599650065
20
106.59584081684997
30
0
10
94.975032492522629
20
106.19873966841868
30
0
0
SPLINE
5
205
100
AcDbEntity
8
0
100
AcDbSpline
70
4
71
3
72
8
73
4
74
0
42
0.000000001
43
0.0000000001
44
0.0000000001
40
-1
40
-1
40
-1
40
-1
40
0
40
0
40
0
40
0
41
1
41
1
41
1
41
1
10
94.975032492522629
20
106.19873966841868
30
0
10
95.896535987838035
20
105.80169033055192
30
0
10
96.932804300497935
20
105.60297862268419
30
0
10
98.083559772073073
20
105.60300959451722
30
0
0
LINE
5
206
100
AcDbEntity
8
0
100
AcDbLine
10
98.083559772073073
20
105.60300959451722
30
0
11
112.75631485045822
21
105.60312566788296
31
0
0
SPLINE
5
207
100
AcDbEntity
8
0
100
AcDbSpline
70
4
71
3
72
8
73
4
74
0
42
0.000000001
43
0.0000000001
44
0.0000000001
40
-1
40
-1
40
-1
40
-1
40
-0.37995588020886295
40
-0.37995588020886295
40
-0.37995588020886295
40
-0.37995588020886295
41
1
41
1
41
1
41
1
10
112.75631485045822
20
105.60312566788296
30
0
10
113.93368171641504
20
105.60314776193957
30
0
10
115.14390321903726
20
105.75577380528721
30
0
10
116.3869612708973
20
106.06107958339967
30
0
0
LINE
5
208
100
AcDbEntity
8
0
100
AcDbLine
10
116.3869612708973
20
106.06107958339967
30
0
11
90.367773022596211
21
60.994523565642886
31
0
0
SPLINE
5
209
100
AcDbEntity
8
0
100
AcDbSpline
70
4
71
3
72
8
73
4
74
0
42
0.000000001
43
0.0000000001
44
0.0000000001
40
-1
40
-1
40
-1
40
-1
40
0
40
0
40
0
40
0
41
1
41
1
41
1
41
1
10
90.367773022596211
20
60.994523565642879
30
0
10
89.909159421865311
20
60.200181508134854
30
0
10
89.191443730916916
20
59.505132421299358
30
0
10
88.214549505018567
20
58.909684763538699
30
0
0
SPLINE
5
210
100
AcDbEntity
8
0
100
AcDbSpline
70
4
71
3
72
8
73
4
74
0
42
0.000000001
43
0.0000000001
44
0.0000000001
40
-1
40
-1
40
-1
40
-1
40
0
40
0
40
0
40
0
41
1
41
1
41
1
41
1
10
88.214549505018567
20
58.909684763538699
30
0
10
87.208843495505448
20
58.363451855890901
30
0
10
86.245625367256508
20
58.090394591862221
30
0
10
85.324886642107089
20
58.090498286840699
30
0
0
LINE
5
211
100
AcDbEntity
8
0
100
AcDbLine
10
85.324886642107089
20
58.090498286840699
30
0
11
72.464748491464505
21
58.090420057804231
31
0
0
SPLINE
5
212
100
AcDbEntity
8
0
100
AcDbSpline
70
4
71
3
72
8
73
4
74
0
42
0.000000001
43
0.0000000001
44
0.0000000001
40
-1
40
-1
40
-1
40
-1
40
0
40
0
40
0
40
0
41
1
41
1
41
1
41
1
10
72.464748491464505
20
58.090420057804231
30
0
10
71.544007362809239
20
58.090515350706127
30
0
10
70.924830194591053
20
58.36357072637648
30
0
10
70.607208508645243
20
58.909571500203313
30
0
0
SPLINE
5
213
100
AcDbEntity
8
0
100
AcDbSpline
70
4
71
3
72
8
73
4
74
0
42
0.000000001
43
0.0000000001
44
0.0000000001
40
-1
40
-1
40
-1
40
-1
40
0
40
0
40
0
40
0
41
1
41
1
41
1
41
1
10
70.607208508645243
20
58.909571500203313
30
0
10
70.2605021876671
20
59.505208877997816
30
0
10
70.316663613203175
20
60.200338058687279
30
0
10
70.775166997793349
20
60.994489216239707
30
0
0
LINE
5
214
100
AcDbEntity
8
0
100
AcDbLine
10
70.775166997793349
20
60.994489216239707
30
0
11
91.625661506536659
21
97.10860506831898
31
0
0
SPLINE
5
215
100
AcDbEntity
8
0
100
AcDbSpline
70
4
71
3
72
8
73
4
74
0
42
0.000000001
43
0.0000000001
44
0.0000000001
40
-1
40
-1
40
-1
40
-1
40
0
40
0
40
0
40
0
41
1
41
1
41
1
41
1
10
91.62566150653663
20
97.10860506831898
30
0
10
92.571447405698933
20
98.746754298750275
30
0
10
92.97090566624496
20
100.23606703615349
30
0
10
92.824125450154256
20
101.57625684904424
30
0
0
SPLINE
5
216
100
AcDbEntity
8
0
100
AcDbSpline
70
4
71
3
72
8
73
4
74
0
42
0.000000001
43
0.0000000001
44
0.0000000001
40
-1
40
-1
40
-1
40
-1
40
0
40
0
40
0
40
0
41
1
41
1
41
1
41
1
10
92.824125450154256
20
101.57625684904424
30
0
10
92.648375054254274
20
102.96628150816424
30
0
10
92.013131682362683
20
104.05828305581791
30
0
10
90.918121915132531
20
104.85267388401286
30
0
0
SPLINE
5
217
100
AcDbEntity
8
0
100
AcDbSpline
70
4
71
3
72
8
73
4
74
0
42
0.000000001
43
0.0000000001
44
0.0000000001
40
-1
40
-1
40
-1
40
-1
40
-0.21316508741921128
40
-0.21316508741921128
40
-0.21316508741921128
40
-0.21316508741921128
41
1
41
1
41
1
41
1
10
90.918121915132531
20
104.85267388401286
30
0
10
90.033800180899263
20
105.5167023562251
30
0
10
88.909532491771145
20
105.91951579638101
30
0
10
87.545438390767856
20
106.06104041734362
30
0
0
LINE
5
218
100
AcDbEntity
8
0
100
AcDbLine
10
84.122750007126427
20
51.98457406411822
30
0
11
92.243281568085365
21
51.984582441112543
31
0
0
LINE
5
219
100
AcDbEntity
8
0
100
AcDbLine
10
92.243281568085365
20
51.984582441112543
30
0
11
87.171092380081802
21
43.199293061888859
31
0
0
SPLINE
5
220
100
AcDbEntity
8
0
100
AcDbSpline
70
4
71
3
72
8
73
4
74
0
42
0.000000001
43
0.0000000001
44
0.0000000001
40
-1
40
-1
40
-1
40
-1
40
0
40
0
40
0
40
0
41
1
41
1
41
1
41
1
10
87.171092380081888
20
43.199293061888859
30
0
10
88.116878279244176
20
44.837442292320162
30
0
10
88.516340778872532
20
46.326762372029364
30
0
10
88.369560562781828
20
47.66695218492012
30
0
0
SPLINE
5
221
100
AcDbEntity
8
0
100
AcDbSpline
70
4
71
3
72
8
73
4
74
0
42
0.000000001
43
0.0000000001
44
0.0000000001
40
-1
40
-1
40
-1
40
-1
40
0
40
0
40
0
40
0
41
1
41
1
41
1
41
1
10
88.369560562781828
20
47.66695218492012
30
0
10
88.193804092223033
20
49.056970561504727
30
0
10
87.558564391484424
20
50.148969989617228
30
0
10
86.463558863336587
20
50.94336816011819
30
0
0
SPLINE
5
222
100
AcDbEntity
8
0
100
AcDbSpline
70
4
71
3
72
8
73
4
74
0
42
0.000000001
43
0.0000000001
44
0.0000000001
40
-1
40
-1
40
-1
40
-1
40
-0.42125160078198015
40
-0.42125160078198015
40
-0.42125160078198015
40
-0.42125160078198015
41
1
41
1
41
1
41
1
10
86.463558863336587
20
50.94336816011819
30
0
10
85.813041238784976
20
51.431677050926993
30
0
10
85.032780139065977
20
51.778789476235332
30
0
10
84.122750007126427
20
51.984574064118227
30
0
0
LINE
5
223
100
AcDbEntity
8
0
100
AcDbLine
10
9.4185994943161067
20
-1.9249349169744245
30
0
11
-11.443241129584401
21
-1.9250660232524808
31
0
0
ARC
5
224
100
AcDbEntity
8
0
100
AcDbCircle
10
-11.443209707074658
20
-6.9250660231537449
30
0
40
5.0000000000000018
210
0
220
0
230
1
100
AcDbArc
50
90.00036007543801
51
270.00036007543798
0
LINE
5
225
100
AcDbEntity
8
0
100
AcDbLine
10
-11.443178284564915
20
-11.925066023055011
30
0
11
68.476917557335383
21
-11.924563765056956
31
0
0
ARC
5
226
100
AcDbEntity
8
0
100
AcDbCircle
10
65.160261344535797
20
-6.9245846084906395
30
0
40
5.9999999999999822
210
-0
220
0
230
1
100
AcDbArc
50
303.55766983735822
51
329.99999999999989
0
LINE
5
227
100
AcDbEntity
8
0
100
AcDbLine
10
70.356413767242401
20
-9.9245846084906386
30
0
11
194.95294271563199
21
205.88293397684629
31
0
0
ARC
5
228
100
AcDbEntity
8
0
100
AcDbCircle
10
189.75679029292536
20
208.88293397684623
30
0
40
5.9999999999999742
210
-0
220
0
230
1
100
AcDbArc
50
-29.99999999999951
51
149.99999999999955
0
LINE
5
229
100
AcDbEntity
8
0
100
AcDbLine
10
184.56063787021873
20
211.88293397684629
30
0
11
180.37696569780039
21
204.63660121200573
31
0
0
SPLINE
5
230
100
AcDbEntity
8
0
100
AcDbSpline
70
4
71
3
72
8
73
4
74
0
42
0.000000001
43
0.0000000001
44
0.0000000001
40
-1
40
-1
40
-1
40
-1
40
0
40
0
40
0
40
0
41
1
41
1
41
1
41
1
10
180.37696569780047
20
204.6366012120057
30
0
10
181.32263714173962
20
206.27455220017541
30
0
10
181.72187497000414
20
207.76348313766746
30
0
10
181.5748785607143
20
209.103298492953
30
0
0
SPLINE
5
231
100
AcDbEntity
8
0
100
AcDbSpline
70
4
71
3
72
8
73
4
74
0
42
0.000000001
43
0.0000000001
44
0.0000000001
40
-1
40
-1
40
-1
40
-1
40
0
40
0
40
0
40
0
41
1
41
1
41
1
41
1
10
181.5748785607143
20
209.103298492953
30
0
10
181.40012251358687
20
210.4950496537499
30
0
10
180.76421303783914
20
211.58588899751689
30
0
10
179.66898707740981
20
212.37990536810671
30
0
0
SPLINE
5
232
100
AcDbEntity
8
0
100
AcDbSpline
70
4
71
3
72
8
73
4
74
0
42
0.000000001
43
0.0000000001
44
0.0000000001
40
-1
40
-1
40
-1
40
-1
40
0
40
0
40
0
40
0
41
1
41
1
41
1
41
1
10
179.66898707740981
20
212.37990536810671
30
0
10
178.54508541067941
20
213.22382152435802
30
0
10
177.03428945958549
20
213.64698538045633
30
0
10
175.13455555976307
20
213.64540786316016
30
0
0
LINE
5
233
100
AcDbEntity
8
0
100
AcDbLine
10
175.13455555976304
20
213.64540786316016
30
0
11
133.96457092918962
21
213.64563304041835
31
0
0
SPLINE
5
234
100
AcDbEntity
8
0
100
AcDbSpline
70
4
71
3
72
8
73
4
74
0
42
0.000000001
43
0.0000000001
44
0.0000000001
40
-1
40
-1
40
-1
40
-1
40
0
40
0
40
0
40
0
41
1
41
1
41
1
41
1
10
133.96457092918962
20
213.64563304041837
30
0
10
132.00834876738551
20
213.64587051021516
30
0
10
130.00978967264041
20
213.2240215389096
30
0
10
127.96894161076685
20
212.38003885394431
30
0
0
SPLINE
5
235
100
AcDbEntity
8
0
100
AcDbSpline
70
4
71
3
72
8
73
4
74
0
42
0.000000001
43
0.0000000001
44
0.0000000001
40
-1
40
-1
40
-1
40
-1
40
0
40
0
40
0
40
0
41
1
41
1
41
1
41
1
10
127.96894161076685
20
212.38003885394431
30
0
10
125.89937674881482
20
211.58601883910916
30
0
10
124.00316717021585
20
210.49427680715382
30
0
10
122.28032937240515
20
209.10484239224485
30
0
0
SPLINE
5
236
100
AcDbEntity
8
0
100
AcDbSpline
70
4
71
3
72
8
73
4
74
0
42
0.000000001
43
0.0000000001
44
0.0000000001
40
-1
40
-1
40
-1
40
-1
40
0
40
0
40
0
40
0
41
1
41
1
41
1
41
1
10
122.28032937240515
20
209.10484239224485
30
0
10
120.52767306607505
20
207.76342222742457
30
0
10
119.17851170916977
20
206.27374498677054
30
0
10
118.23283178706588
20
204.63577931398885
30
0
0
LINE
5
237
100
AcDbEntity
8
0
100
AcDbLine
10
118.23283178706589
20
204.63577931398885
30
0
11
97.382676404909517
21
168.52225084638829
31
0
0
SPLINE
5
238
100
AcDbEntity
8
0
100
AcDbSpline
70
4
71
3
72
8
73
4
74
0
42
0.000000001
43
0.0000000001
44
0.0000000001
40
-1
40
-1
40
-1
40
-1
40
0
40
0
40
0
40
0
41
1
41
1
41
1
41
1
10
97.382676404909489
20
168.52225084638829
30
0
10
96.408221591905971
20
166.83444560058615
30
0
10
96.008829310352994
20
165.29553909967109
30
0
10
96.184623291014773
20
163.90575359989256
30
0
0
SPLINE
5
239
100
AcDbEntity
8
0
100
AcDbSpline
70
4
71
3
72
8
73
4
74
0
42
0.000000001
43
0.0000000001
44
0.0000000001
40
-1
40
-1
40
-1
40
-1
40
0
40
0
40
0
40
0
41
1
41
1
41
1
41
1
10
96.184623291014773
20
163.90575359989256
30
0
10
96.331378754307039
20
162.56533333450389
30
0
10
96.981094650044653
20
161.49808497642971
30
0
10
98.133661220981054
20
160.70381736077195
30
0
0
SPLINE
5
240
100
AcDbEntity
8
0
100
AcDbSpline
70
4
71
3
72
8
73
4
74
0
42
0.000000001
43
0.0000000001
44
0.0000000001
40
-1
40
-1
40
-1
40
-1
40
-0.36724692140702997
40
-0.36724692140702997
40
-0.36724692140702997
40
-0.36724692140702997
41
1
41
1
41
1
41
1
10
98.133661220981054
20
160.70381736077195
30
0
10
98.826492753792508
20
160.20118059581151
30
0
10
99.691796721866297
20
159.85758868053932
30
0
10
100.72955882571699
20
159.67304987076722
30
0
0
SPLINE
5
241
100
AcDbEntity
8
0
100
AcDbSpline
70
4
71
3
72
8
73
4
74
0
42
0.000000001
43
0.0000000001
44
0.0000000001
40
-0.94155894282215213
40
-0.94155894282215213
40
-0.94155894282215213
40
-0.94155894282215213
40
0
40
0
40
0
40
0
41
1
41
1
41
1
41
1
10
100.72955882571699
20
159.67304987076716
30
0
10
99.122609310144412
20
159.31309681994736
30
0
10
97.43967538989267
20
158.68897445041085
30
0
10
95.680939130683129
20
157.80103526307579
30
0
0
SPLINE
5
242
100
AcDbEntity
8
0
100
AcDbSpline
70
4
71
3
72
8
73
4
74
0
42
0.000000001
43
0.0000000001
44
0.0000000001
40
-1
40
-1
40
-1
40
-1
40
0
40
0
40
0
40
0
41
1
41
1
41
1
41
1
10
95.680939130683129
20
157.80103526307579
30
0
10
93.783996023842377
20
156.90733245197654
30
0
10
92.074592634373843
20
155.84017343691204
30
0
10
90.552519325384552
20
154.59915060576799
30
0
0
SPLINE
5
243
100
AcDbEntity
8
0
100
AcDbSpline
70
4
71
3
72
8
73
4
74
0
42
0.000000001
43
0.0000000001
44
0.0000000001
40
-1
40
-1
40
-1
40
-1
40
0
40
0
40
0
40
0
41
1
41
1
41
1
41
1
10
90.552519325384552
20
154.59915060576799
30
0
10
89.001528143631177
20
153.40769746757505
30
0
10
87.824756765365635
20
152.11694087999174
30
0
10
87.022323913574255
20
150.72708641102668
30
0
0
LINE
5
244
100
AcDbEntity
8
0
100
AcDbLine
10
87.02232391357424
20
150.72708641102665
30
0
11
66.171825165748629
21
114.61296321664143
31
0
0
SPLINE
5
245
100
AcDbEntity
8
0
100
AcDbSpline
70
4
71
3
72
8
73
4
74
0
42
0.000000001
43
0.0000000001
44
0.0000000001
40
-1
40
-1
40
-1
40
-1
40
0
40
0
40
0
40
0
41
1
41
1
41
1
41
1
10
66.171825165748629
20
114.61296321664143
30
0
10
65.197370352745082
20
112.92515797083928
30
0
10
64.797983839013384
20
111.38626771935371
30
0
10
64.973663393132952
20
109.99628396075467
30
0
0
SPLINE
5
246
100
AcDbEntity
8
0
100
AcDbSpline
70
4
71
3
72
8
73
4
74
0
42
0.000000001
43
0.0000000001
44
0.0000000001
40
-1
40
-1
40
-1
40
-1
40
0
40
0
40
0
40
0
41
1
41
1
41
1
41
1
10
64.973663393132952
20
109.99628396075467
30
0
10
65.120524833483614
20
108.65604725301557
30
0
10
65.770246694844857
20
107.58879545068706
30
0
10
66.92279777241626
20
106.79454656986904
30
0
0
SPLINE
5
247
100
AcDbEntity
8
0
100
AcDbSpline
70
4
71
3
72
8
73
4
74
0
42
0.000000001
43
0.0000000001
44
0.0000000001
40
-1
40
-1
40
-1
40
-1
40
-0.45798549080726186
40
-0.45798549080726186
40
-0.45798549080726186
40
-0.45798549080726186
41
1
41
1
41
1
41
1
10
66.92279777241626
20
106.79454656986904
30
0
10
67.516285763227671
20
106.36398329801307
30
0
10
68.236315722347143
20
106.05012703594106
30
0
10
69.082873095653937
20
105.85294565641351
30
0
0
SPLINE
5
248
100
AcDbEntity
8
0
100
AcDbSpline
70
4
71
3
72
8
73
4
74
0
42
0.000000001
43
0.0000000001
44
0.0000000001
40
-0.54201450919273531
40
-0.54201450919273531
40
-0.54201450919273531
40
-0.54201450919273531
40
0
40
0
40
0
40
0
41
1
41
1
41
1
41
1
10
69.082873095653923
20
105.85294565641351
30
0
10
68.001524507899632
20
105.64345672334721
30
0
10
66.907775664072645
20
105.31001288935776
30
0
10
65.801657993325378
20
104.85267551009707
30
0
0
SPLINE
5
249
100
AcDbEntity
8
0
100
AcDbSpline
70
4
71
3
72
8
73
4
74
0
42
0.000000001
43
0.0000000001
44
0.0000000001
40
-1
40
-1
40
-1
40
-1
40
0
40
0
40
0
40
0
41
1
41
1
41
1
41
1
10
65.801657993325378
20
104.85267551009707
30
0
10
63.731994169515275
20
104.05843851816064
30
0
10
61.835562432093532
20
102.96632547285449
30
0
10
60.112389746778277
20
101.57631101577277
30
0
0
SPLINE
5
250
100
AcDbEntity
8
0
100
AcDbSpline
70
4
71
3
72
8
73
4
74
0
42
0.000000001
43
0.0000000001
44
0.0000000001
40
-1
40
-1
40
-1
40
-1
40
0
40
0
40
0
40
0
41
1
41
1
41
1
41
1
10
60.112389746778277
20
101.57631101577277
30
0
10
58.360398947694101
20
100.23604360955093
30
0
10
57.011460733413713
20
98.74674660399053
30
0
10
56.065674834251425
20
97.108597373559235
30
0
0
LINE
5
251
100
AcDbEntity
8
0
100
AcDbLine
10
56.065674834251425
20
97.108597373559235
30
0
11
35.215178205966964
21
60.99447785032698
31
0
0
SPLINE
5
252
100
AcDbEntity
8
0
100
AcDbSpline
70
4
71
3
72
8
73
4
74
0
42
0.000000001
43
0.0000000001
44
0.0000000001
40
-1
40
-1
40
-1
40
-1
40
0
40
0
40
0
40
0
41
1
41
1
41
1
41
1
10
35.215178205966964
20
60.99447785032698
30
0
10
34.240723392963424
20
59.30667260452482
30
0
10
33.841336879231719
20
57.767782353039266
30
0
10
34.017018552892466
20
56.377802265593246
30
0
0
SPLINE
5
253
100
AcDbEntity
8
0
100
AcDbSpline
70
4
71
3
72
8
73
4
74
0
42
0.000000001
43
0.0000000001
44
0.0000000001
40
-1
40
-1
40
-1
40
-1
40
0
40
0
40
0
40
0
41
1
41
1
41
1
41
1
10
34.017018552892466
20
56.377802265593246
30
0
10
34.163879993243128
20
55.037565557854123
30
0
10
34.813601854604372
20
53.970313755525595
30
0
10
35.96614869309343
20
53.176057532401614
30
0
0
SPLINE
5
254
100
AcDbEntity
8
0
100
AcDbSpline
70
4
71
3
72
8
73
4
74
0
42
0.000000001
43
0.0000000001
44
0.0000000001
40
-1
40
-1
40
-1
40
-1
40
-0.35740478369804385
40
-0.35740478369804385
40
-0.35740478369804385
40
-0.35740478369804385
41
1
41
1
41
1
41
1
10
35.96614869309343
20
53.176057532401614
30
0
10
36.669770599126245
20
52.665597728337687
30
0
10
37.551256375002993
20
52.319178050056863
30
0
10
38.610580642887285
20
52.136743012417995
30
0
0
SPLINE
5
255
100
AcDbEntity
8
0
100
AcDbSpline
70
4
71
3
72
8
73
4
74
0
42
0.000000001
43
0.0000000001
44
0.0000000001
40
-0.93418407315681318
40
-0.93418407315681318
40
-0.93418407315681318
40
-0.93418407315681318
40
0
40
0
40
0
40
0
41
1
41
1
41
1
41
1
10
38.610580642887314
20
52.136743012417995
30
0
10
37.015035062685762
20
51.775500545199655
30
0
10
35.344690499738022
20
51.154210714695139
30
0
10
33.599622824092066
20
50.273041219305853
30
0
0
SPLINE
5
256
100
AcDbEntity
8
0
100
AcDbSpline
70
4
71
3
72
8
73
4
74
0
42
0.000000001
43
0.0000000001
44
0.0000000001
40
-1
40
-1
40
-1
40
-1
40
0
40
0
40
0
40
0
41
1
41
1
41
1
41
1
10
33.599622824092066
20
50.273041219305853
30
0
10
31.702792052933241
20
49.379532979315215
30
0
10
29.9933886634647
20
48.312373964250703
30
0
10
28.471319593557745
20
47.071358475412623
30
0
0
SPLINE
5
257
100
AcDbEntity
8
0
100
AcDbSpline
70
4
71
3
72
8
73
4
74
0
42
0.000000001
43
0.0000000001
44
0.0000000001
40
-1
40
-1
40
-1
40
-1
40
0
40
0
40
0
40
0
41
1
41
1
41
1
41
1
10
28.471319593557745
20
47.071358475412623
30
0
10
26.920322053180854
20
45.879894323760709
30
0
10
25.743550674915326
20
44.589137736177392
30
0
10
24.941117823123946
20
43.199283267212323
30
0
0
LINE
5
258
100
AcDbEntity
8
0
100
AcDbLine
10
24.941117823123946
20
43.199283267212323
30
0
11
4.0906222546100679
21
7.0851655795565804
31
0
0
SPLINE
5
259
100
AcDbEntity
8
0
100
AcDbSpline
70
4
71
3
72
8
73
4
74
0
42
0.000000001
43
0.0000000001
44
0.0000000001
40
-1
40
-1
40
-1
40
-1
40
0
40
0
40
0
40
0
41
1
41
1
41
1
41
1
10
4.0906222546100635
20
7.0851655795565804
30
0
10
3.1161671766638772
20
5.3973598748602942
30
0
10
2.716779603161585
20
3.8584677877982365
30
0
10
2.8924722719421423
20
2.4685067444583506
30
0
0
SPLINE
5
260
100
AcDbEntity
8
0
100
AcDbSpline
70
4
71
3
72
8
73
4
74
0
42
0.000000001
43
0.0000000001
44
0.0000000001
40
-1
40
-1
40
-1
40
-1
40
0
40
0
40
0
40
0
41
1
41
1
41
1
41
1
10
2.8924722719421423
20
2.4685067444583506
30
0
10
3.0392899967562084
20
1.1281943191887813
30
0
10
3.6889919211833395
20
0.060907985077427652
30
0
10
4.8415414090988591
20
-0.73334364910532202
30
0
0
SPLINE
5
261
100
AcDbEntity
8
0
100
AcDbSpline
70
4
71
3
72
8
73
4
74
0
42
0.000000001
43
0.0000000001
44
0.0000000001
40
-1
40
-1
40
-1
40
-1
40
0
40
0
40
0
40
0
41
1
41
1
41
1
41
1
10
4.84154140909886
20
-0.73334364910532202
30
0
10
5.9365397294020381
20
-1.5276536050172751
30
0
10
7.4622194864053828
20
-1.9248470731632579
30
0
10
9.4185994943160836
20
-1.9249349169744256
30
0
0
ENDSEC
0
SECTION
2
OBJECTS
0
DICTIONARY
5
C
100
AcDbDictionary
3
ACAD_GROUP
350
D
3
ACAD_MLINESTYLE
350
17
0
DICTIONARY
5
D
100
AcDbDictionary
0
DICTIONARY
5
1A
330
C
100
AcDbDictionary
0
DICTIONARY
5
17
100
AcDbDictionary
0
ENDSEC
0
EOF
