0
SECTION
2
HEADER
9
$INSUNITS
70
4
9
$ACADVER
1
AC1014
9
$HANDSEED
5
FFFF
0
ENDSEC
0
SECTION
2
TABLES
0
TABLE
2
VPORT
5
8
100
AcDbSymbolTable
0
ENDTAB
0
TABLE
2
LTYPE
5
5
100
AcDbSymbolTable
0
LTYPE
5
14
100
AcDbSymbolTableRecord
100
AcDbLinetypeTableRecord
2
BYBLOCK
70
0
0
LTYPE
5
15
100
AcDbSymbolTableRecord
100
AcDbLinetypeTableRecord
2
BYLAYER
70
0
0
ENDTAB
0
TABLE
2
LAYER
5
2
100
AcDbSymbolTable
70
2
0
LAYER
5
50
100
AcDbSymbolTableRecord
100
AcDbLayerTableRecord
2
0
70
0
6
CONTINUOUS
0
ENDTAB
0
TABLE
2
STYLE
5
3
100
AcDbSymbolTable
70
1
0
STYLE
5
11
100
AcDbSymbolTableRecord
100
AcDbTextStyleTableRecord
2
STANDARD
70
0
0
ENDTAB
0
TABLE
2
VIEW
5
6
100
AcDbSymbolTable
70
0
0
ENDTAB
0
TABLE
2
UCS
5
7
100
AcDbSymbolTable
70
0
0
ENDTAB
0
TABLE
2
APPID
5
9
100
AcDbSymbolTable
70
2
0
APPID
5
12
100
AcDbSymbolTableRecord
100
AcDbRegAppTableRecord
2
ACAD
70
0
0
ENDTAB
0
TABLE
2
DIMSTYLE
5
A
100
AcDbSymbolTable
70
1
0
ENDTAB
0
TABLE
2
BLOCK_RECORD
5
1
100
AcDbSymbolTable
70
1
0
BLOCK_RECORD
5
1F
100
AcDbSymbolTableRecord
100
AcDbBlockTableRecord
2
*MODEL_SPACE
0
BLOCK_RECORD
5
1B
100
AcDbSymbolTableRecord
100
AcDbBlockTableRecord
2
*PAPER_SPACE
0
ENDTAB
0
ENDSEC
0
SECTION
2
BLOCKS
0
BLOCK
5
20
100
AcDbEntity
100
AcDbBlockBegin
2
*MODEL_SPACE
0
ENDBLK
5
21
100
AcDbEntity
100
AcDbBlockEnd
0
BLOCK
5
1C
100
AcDbEntity
100
AcDbBlockBegin
2
*PAPER_SPACE
0
ENDBLK
5
1D
100
AcDbEntity
100
AcDbBlockEnd
0
ENDSEC
0
SECTION
2
ENTITIES
0
SPLINE
5
100
100
AcDbEntity
8
0
100
AcDbSpline
70
4
71
3
72
8
73
4
74
0
42
0.000000001
43
0.0000000001
44
0.0000000001
40
-1
40
-1
40
-1
40
-1
40
0
40
0
40
0
40
0
41
1
41
1
41
1
41
1
10
-35.504438119475175
20
-34.031559959229625
30
0
10
-35.963006679956244
20
-33.23729591372269
30
0
10
-36.047814451184195
20
-32.542333589802716
30
0
10
-35.758670003318144
20
-31.946563689117205
30
0
0
SPLINE
5
101
100
AcDbEntity
8
0
100
AcDbSpline
70
4
71
3
72
8
73
4
74
0
42
0.000000001
43
0.0000000001
44
0.0000000001
40
-1
40
-1
40
-1
40
-1
40
0
40
0
40
0
40
0
41
1
41
1
41
1
41
1
10
-35.758670003318144
20
-31.946563689117205
30
0
10
-35.383556105154128
20
-31.400579021056227
30
0
10
-34.735618665906273
20
-31.127554113089712
30
0
10
-33.814857685574587
20
-31.127488965217655
30
0
0
LINE
5
102
100
AcDbEntity
8
0
100
AcDbLine
10
-33.81485768557458
20
-31.127488965217655
30
0
11
-19.142138639389273
21
-31.127542628982535
31
0
0
SPLINE
5
103
100
AcDbEntity
8
0
100
AcDbSpline
70
4
71
3
72
8
73
4
74
0
42
0.000000001
43
0.0000000001
44
0.0000000001
40
-1
40
-1
40
-1
40
-1
40
0
40
0
40
0
40
0
41
1
41
1
41
1
41
1
10
-19.142138639389273
20
-31.127542628982535
30
0
10
-18.22138002451937
20
-31.127477623092815
30
0
10
-17.287120201685092
20
-31.400606517446516
30
0
10
-16.338784389522566
20
-31.946593790715486
30
0
0
SPLINE
5
104
100
AcDbEntity
8
0
100
AcDbSpline
70
4
71
3
72
8
73
4
74
0
42
0.000000001
43
0.0000000001
44
0.0000000001
40
-1
40
-1
40
-1
40
-1
40
0
40
0
40
0
40
0
41
1
41
1
41
1
41
1
10
-16.338784389522566
20
-31.946593790715486
30
0
10
-15.304486053614923
20
-32.542345821302845
30
0
10
-14.557853388304668
20
-33.237251690329984
30
0
10
-14.099252504820782
20
-34.031571720920049
30
0
0
LINE
5
105
100
AcDbEntity
8
0
100
AcDbLine
10
-14.099252504820786
20
-34.031571720920056
30
0
11
6.7511317877817723
21
-70.145496673043709
31
0
0
SPLINE
5
106
100
AcDbEntity
8
0
100
AcDbSpline
70
4
71
3
72
8
73
4
74
0
42
0.000000001
43
0.0000000001
44
0.0000000001
40
-1
40
-1
40
-1
40
-1
40
0
40
0
40
0
40
0
41
1
41
1
41
1
41
1
10
6.7511317877817678
20
-70.145496673043709
30
0
10
7.2097453885126619
20
-70.939838730551742
30
0
10
7.2512672859141256
20
-71.610056608358533
30
0
10
6.8761950027675596
20
-72.156117594826426
30
0
0
SPLINE
5
107
100
AcDbEntity
8
0
100
AcDbSpline
70
4
71
3
72
8
73
4
74
0
42
0.000000001
43
0.0000000001
44
0.0000000001
40
-1
40
-1
40
-1
40
-1
40
0
40
0
40
0
40
0
41
1
41
1
41
1
41
1
10
6.8761950027675596
20
-72.156117594826426
30
0
10
6.5870534502485869
20
-72.751888271317853
30
0
10
5.9824013549419259
20
-73.049656707609302
30
0
10
5.0615521296870831
20
-73.049564771708603
30
0
0
LINE
5
108
100
AcDbEntity
8
0
100
AcDbLine
10
5.0615521296870849
20
-73.049564771708603
30
0
11
-9.6110884934750018
21
-73.049646940604433
31
0
0
SPLINE
5
109
100
AcDbEntity
8
0
100
AcDbSpline
70
4
71
3
72
8
73
4
74
0
42
0.000000001
43
0.0000000001
44
0.0000000001
40
-1
40
-1
40
-1
40
-1
40
0
40
0
40
0
40
0
41
1
41
1
41
1
41
1
10
-9.6110884934750018
20
-73.049646940604433
30
0
10
-10.531827218624423
20
-73.04975063558291
30
0
10
-11.509384042876324
20
-72.751858021562811
30
0
10
-12.543756846689524
20
-72.155972769697144
30
0
0
SPLINE
5
110
100
AcDbEntity
8
0
100
AcDbSpline
70
4
71
3
72
8
73
4
74
0
42
0.000000001
43
0.0000000001
44
0.0000000001
40
-1
40
-1
40
-1
40
-1
40
0
40
0
40
0
40
0
41
1
41
1
41
1
41
1
10
-12.543756846689524
20
-72.155972769697144
30
0
10
-13.492094494428549
20
-71.609986556198763
30
0
10
-14.195363392774382
20
-70.939960048157275
30
0
10
-14.65397699350528
20
-70.145617990649271
30
0
0
LINE
5
111
100
AcDbEntity
8
0
100
AcDbLine
10
-14.65397699350528
20
-70.145617990649271
30
0
11
-35.504438119475175
21
-34.031559959229625
31
0
0
SPLINE
5
112
100
AcDbEntity
8
0
100
AcDbSpline
70
4
71
3
72
8
73
4
74
0
42
0.000000001
43
0.0000000001
44
0.0000000001
40
-1
40
-1
40
-1
40
-1
40
0
40
0
40
0
40
0
41
1
41
1
41
1
41
1
10
-7.971385045847514
20
-34.031577538790224
30
0
10
-8.4299975868078274
20
-33.237237316858703
30
0
10
-8.5145249074658302
20
-32.542319883011899
30
0
10
-8.2255731951318616
20
-31.946661258237718
30
0
0
SPLINE
5
113
100
AcDbEntity
8
0
100
AcDbSpline
70
4
71
3
72
8
73
4
74
0
42
0.000000001
43
0.0000000001
44
0.0000000001
40
-1
40
-1
40
-1
40
-1
40
0
40
0
40
0
40
0
41
1
41
1
41
1
41
1
10
-8.2255731951318616
20
-31.946661258237718
30
0
10
-7.8503121315708757
20
-31.400486384476075
30
0
10
-7.2024478871185504
20
-31.127555131686346
30
0
10
-6.2818266388648709
20
-31.12751926202526
30
0
0
LINE
5
114
100
AcDbEntity
8
0
100
AcDbLine
10
-6.2818266388648727
20
-31.12751926202526
30
0
11
7.3553150542775514
21
-31.127589602787516
31
0
0
SPLINE
5
115
100
AcDbEntity
8
0
100
AcDbSpline
70
4
71
3
72
8
73
4
74
0
42
0.000000001
43
0.0000000001
44
0.0000000001
40
-1
40
-1
40
-1
40
-1
40
0
40
0
40
0
40
0
41
1
41
1
41
1
41
1
10
7.3553150542775549
20
-31.12758960278752
30
0
10
8.2759367614253563
20
-31.127553468183788
30
0
10
9.2103583887620815
20
-31.400562022875832
30
0
10
10.158561121628649
20
-31.94662612951214
30
0
0
SPLINE
5
116
100
AcDbEntity
8
0
100
AcDbSpline
70
4
71
3
72
8
73
4
74
0
42
0.000000001
43
0.0000000001
44
0.0000000001
40
-1
40
-1
40
-1
40
-1
40
0
40
0
40
0
40
0
41
1
41
1
41
1
41
1
10
10.158561121628649
20
-31.94662612951214
30
0
10
11.192940727302725
20
-32.542252921047485
30
0
10
11.939492668022652
20
-33.237332663075634
30
0
10
12.397993933071628
20
-34.031480149475072
30
0
0
LINE
5
117
100
AcDbEntity
8
0
100
AcDbLine
10
12.397993933071628
20
-34.031480149475072
30
0
11
33.248488441814928
21
-70.145596001554324
31
0
0
SPLINE
5
118
100
AcDbEntity
8
0
100
AcDbSpline
70
4
71
3
72
8
73
4
74
0
42
0.000000001
43
0.0000000001
44
0.0000000001
40
-1
40
-1
40
-1
40
-1
40
0
40
0
40
0
40
0
41
1
41
1
41
1
41
1
10
33.248488441814928
20
-70.145596001554324
30
0
10
33.70710204254582
20
-70.939938059062342
30
0
10
33.74875977260799
20
-71.610077513845908
30
0
10
33.373462090895543
20
-72.156014100962381
30
0
0
SPLINE
5
119
100
AcDbEntity
8
0
100
AcDbSpline
70
4
71
3
72
8
73
4
74
0
42
0.000000001
43
0.0000000001
44
0.0000000001
40
-1
40
-1
40
-1
40
-1
40
0
40
0
40
0
40
0
41
1
41
1
41
1
41
1
10
33.373462090895543
20
-72.156014100962381
30
0
10
33.084451498131372
20
-72.751704272933452
30
0
10
32.479630179928172
20
-73.049580199851093
30
0
10
31.559008472780373
20
-73.049616334454839
30
0
0
LINE
5
120
100
AcDbEntity
8
0
100
AcDbLine
10
31.559008472780373
20
-73.049616334454839
30
0
11
17.921976995778689
21
-73.049736893648159
31
0
0
SPLINE
5
121
100
AcDbEntity
8
0
100
AcDbSpline
70
4
71
3
72
8
73
4
74
0
42
0.000000001
43
0.0000000001
44
0.0000000001
40
-1
40
-1
40
-1
40
-1
40
0
40
0
40
0
40
0
41
1
41
1
41
1
41
1
10
17.921976995778696
20
-73.049736893648159
30
0
10
17.001245531384267
20
-73.049581863353666
30
0
10
16.023894373250911
20
-72.75182504121878
30
0
10
14.989328833905624
20
-72.15605106526445
30
0
0
SPLINE
5
122
100
AcDbEntity
8
0
100
AcDbSpline
70
4
71
3
72
8
73
4
74
0
42
0.000000001
43
0.0000000001
44
0.0000000001
40
-1
40
-1
40
-1
40
-1
40
0
40
0
40
0
40
0
41
1
41
1
41
1
41
1
10
14.989328833905624
20
-72.15605106526445
30
0
10
14.041181802157514
20
-71.609949904701736
30
0
10
13.337611787715346
20
-70.939842712845419
30
0
10
12.879110522666366
20
-70.14569522644598
30
0
0
LINE
5
123
100
AcDbEntity
8
0
100
AcDbLine
10
12.879110522666368
20
-70.14569522644598
30
0
11
-7.971385045847514
21
-34.031577538790224
31
0
0
SPLINE
5
124
100
AcDbEntity
8
0
100
AcDbSpline
70
4
71
3
72
8
73
4
74
0
42
0.000000001
43
0.0000000001
44
0.0000000001
40
-1
40
-1
40
-1
40
-1
40
0
40
0
40
0
40
0
41
1
41
1
41
1
41
1
10
26.576732468660573
20
-141.55930161123135
30
0
10
26.118229084070421
20
-140.76515045367893
30
0
10
26.033401707086664
20
-140.07015417159377
30
0
10
26.322542975640971
20
-139.47437876417874
30
0
0
SPLINE
5
125
100
AcDbEntity
8
0
100
AcDbSpline
70
4
71
3
72
8
73
4
74
0
42
0.000000001
43
0.0000000001
44
0.0000000001
40
-1
40
-1
40
-1
40
-1
40
0
40
0
40
0
40
0
41
1
41
1
41
1
41
1
10
26.322542975640971
20
-139.47437876417874
30
0
10
26.697613423211038
20
-138.92831883748144
30
0
10
27.34557523718232
20
-138.65533614777434
30
0
10
28.266313962331747
20
-138.65523245279587
30
0
0
LINE
5
126
100
AcDbEntity
8
0
100
AcDbLine
10
28.266313962331747
20
-138.65523245279587
30
0
11
42.939064801634572
21
-138.65534118385563
31
0
0
SPLINE
5
127
100
AcDbEntity
8
0
100
AcDbSpline
70
4
71
3
72
8
73
4
74
0
42
0.000000001
43
0.0000000001
44
0.0000000001
40
-1
40
-1
40
-1
40
-1
40
0
40
0
40
0
40
0
41
1
41
1
41
1
41
1
10
42.939064801634572
20
-138.65534118385565
30
0
10
43.859801691207508
20
-138.65523854864773
30
0
10
44.794050916335941
20
-138.92834908723646
30
0
10
45.742388848039646
20
-139.47434003165844
30
0
0
SPLINE
5
128
100
AcDbEntity
8
0
100
AcDbSpline
70
4
71
3
72
8
73
4
74
0
42
0.000000001
43
0.0000000001
44
0.0000000001
40
-1
40
-1
40
-1
40
-1
40
0
40
0
40
0
40
0
41
1
41
1
41
1
41
1
10
45.742388848039646
20
-139.47434003165844
30
0
10
46.77676136788817
20
-140.07022055260052
30
0
10
47.523335745816297
20
-140.76502546492037
30
0
10
47.981953585629526
20
-141.55937486473437
30
0
0
LINE
5
129
100
AcDbEntity
8
0
100
AcDbLine
10
47.981953585629526
20
-141.55937486473437
30
0
11
68.832448094372836
21
-177.6734907168136
31
0
0
SPLINE
5
130
100
AcDbEntity
8
0
100
AcDbSpline
70
4
71
3
72
8
73
4
74
0
42
0.000000001
43
0.0000000001
44
0.0000000001
40
-1
40
-1
40
-1
40
-1
40
0
40
0
40
0
40
0
41
1
41
1
41
1
41
1
10
68.832448094372836
20
-177.67349071681363
30
0
10
69.290947239880637
20
-178.46763453206009
30
0
10
69.332469137282104
20
-179.13785240986687
30
0
10
68.957401093217868
20
-179.68392073864078
30
0
0
SPLINE
5
131
100
AcDbEntity
8
0
100
AcDbSpline
70
4
71
3
72
8
73
4
74
0
42
0.000000001
43
0.0000000001
44
0.0000000001
40
-1
40
-1
40
-1
40
-1
40
0
40
0
40
0
40
0
41
1
41
1
41
1
41
1
10
68.957401093217868
20
-179.68392073864078
30
0
10
68.668257421157733
20
-180.2796877439792
30
0
10
68.063601086768756
20
-180.57744883796465
30
0
10
67.14286419719582
20
-180.57755147317252
30
0
0
LINE
5
132
100
AcDbEntity
8
0
100
AcDbLine
10
67.14286419719582
20
-180.57755147317252
30
0
11
52.470117596975321
21
-180.57745008441879
31
0
0
SPLINE
5
133
100
AcDbEntity
8
0
100
AcDbSpline
70
4
71
3
72
8
73
4
74
0
42
0.000000001
43
0.0000000001
44
0.0000000001
40
-1
40
-1
40
-1
40
-1
40
0
40
0
40
0
40
0
41
1
41
1
41
1
41
1
10
52.470117596975314
20
-180.57745008441879
30
0
10
51.549378871825894
20
-180.57755377939725
30
0
10
50.571824167115167
20
-180.27966483653015
30
0
10
49.5375552208192
20
-179.68395947116107
30
0
0
SPLINE
5
134
100
AcDbEntity
8
0
100
AcDbSpline
70
4
71
3
72
8
73
4
74
0
42
0.000000001
43
0.0000000001
44
0.0000000001
40
-1
40
-1
40
-1
40
-1
40
0
40
0
40
0
40
0
41
1
41
1
41
1
41
1
10
49.5375552208192
20
-179.68395947116107
30
0
10
48.589215453539005
20
-179.13796958650974
30
0
10
47.885840578134761
20
-178.46775952081859
30
0
10
47.427222738321532
20
-177.67341012100462
30
0
0
LINE
5
135
100
AcDbEntity
8
0
100
AcDbLine
10
47.427222738321539
20
-177.67341012100462
30
0
11
26.576732468660573
21
-141.55930161123135
31
0
0
SPLINE
5
136
100
AcDbEntity
8
0
100
AcDbSpline
70
4
71
3
72
8
73
4
74
0
42
0.000000001
43
0.0000000001
44
0.0000000001
40
-1
40
-1
40
-1
40
-1
40
0
40
0
40
0
40
0
41
1
41
1
41
1
41
1
10
54.109822104373386
20
-141.55938251818105
30
0
10
53.651314480700904
20
-140.76522401832264
30
0
10
53.566682242755078
20
-140.07012486240274
30
0
10
53.855626536694956
20
-139.47445338859308
30
0
0
SPLINE
5
137
100
AcDbEntity
8
0
100
AcDbSpline
70
4
71
3
72
8
73
4
74
0
42
0.000000001
43
0.0000000001
44
0.0000000001
40
-1
40
-1
40
-1
40
-1
40
0
40
0
40
0
40
0
41
1
41
1
41
1
41
1
10
53.855626536694956
20
-139.47445338859308
30
0
10
54.230893958879435
20
-138.92828952829041
30
0
10
54.878756083790599
20
-138.65535460434768
30
0
10
55.79937733204428
20
-138.6553187346866
30
0
0
LINE
5
138
100
AcDbEntity
8
0
100
AcDbLine
10
55.79937733204428
20
-138.65531873468657
30
0
11
69.436519025186698
21
-138.65538907544885
31
0
0
SPLINE
5
139
100
AcDbEntity
8
0
100
AcDbSpline
70
4
71
3
72
8
73
4
74
0
42
0.000000001
43
0.0000000001
44
0.0000000001
40
-1
40
-1
40
-1
40
-1
40
0
40
0
40
0
40
0
41
1
41
1
41
1
41
1
10
69.436519025186698
20
-138.65538907544885
30
0
10
70.3571407323345
20
-138.65535294084512
30
0
10
71.291559180359485
20
-138.92835598880768
30
0
10
72.239764032767212
20
-139.474423766597
30
0
0
SPLINE
5
140
100
AcDbEntity
8
0
100
AcDbSpline
70
4
71
3
72
8
73
4
74
0
42
0.000000001
43
0.0000000001
44
0.0000000001
40
-1
40
-1
40
-1
40
-1
40
0
40
0
40
0
40
0
41
1
41
1
41
1
41
1
10
72.239764032767212
20
-139.474423766597
30
0
10
73.274141518900123
20
-140.07004688697933
30
0
10
74.020698758472975
20
-140.76513580688996
30
0
10
74.479197903980776
20
-141.55927962213642
30
0
0
LINE
5
141
100
AcDbEntity
8
0
100
AcDbLine
10
74.479197903980776
20
-141.55927962213642
30
0
11
95.329692412724086
21
-177.67339547421571
31
0
0
SPLINE
5
142
100
AcDbEntity
8
0
100
AcDbSpline
70
4
71
3
72
8
73
4
74
0
42
0.000000001
43
0.0000000001
44
0.0000000001
40
-1
40
-1
40
-1
40
-1
40
0
40
0
40
0
40
0
41
1
41
1
41
1
41
1
10
95.329692412724086
20
-177.67339547421568
30
0
10
95.788310252537315
20
-178.46774487402968
30
0
10
95.829959504434811
20
-179.13786964420126
30
0
10
95.454666061804701
20
-179.68381357362372
30
0
0
SPLINE
5
143
100
AcDbEntity
8
0
100
AcDbSpline
70
4
71
3
72
8
73
4
74
0
42
0.000000001
43
0.0000000001
44
0.0000000001
40
-1
40
-1
40
-1
40
-1
40
0
40
0
40
0
40
0
41
1
41
1
41
1
41
1
10
95.454666061804701
20
-179.68381357362372
30
0
10
95.16565546904053
20
-180.27950374559481
30
0
10
94.560834150837323
20
-180.57737967251245
30
0
10
93.640212443689506
20
-180.57741580711615
30
0
0
LINE
5
144
100
AcDbEntity
8
0
100
AcDbLine
10
93.640212443689535
20
-180.57741580711618
30
0
11
80.003180966687836
21
-180.57753636630957
31
0
0
SPLINE
5
145
100
AcDbEntity
8
0
100
AcDbSpline
70
4
71
3
72
8
73
4
74
0
42
0.000000001
43
0.0000000001
44
0.0000000001
40
-1
40
-1
40
-1
40
-1
40
0
40
0
40
0
40
0
41
1
41
1
41
1
41
1
10
80.003180966687836
20
-180.57753636630952
30
0
10
79.082449502293414
20
-180.57738133601504
30
0
10
78.105100463701234
20
-180.27962818503312
30
0
10
77.070528565732431
20
-179.68384319561977
30
0
0
SPLINE
5
146
100
AcDbEntity
8
0
100
AcDbSpline
70
4
71
3
72
8
73
4
74
0
42
0.000000001
43
0.0000000001
44
0.0000000001
40
-1
40
-1
40
-1
40
-1
40
0
40
0
40
0
40
0
41
1
41
1
41
1
41
1
10
77.070528565732431
20
-179.68384319561977
30
0
10
76.122390012148998
20
-179.13775671966906
30
0
10
75.41892597476523
20
-178.46783308546236
30
0
10
74.960316613116674
20
-177.67349837026032
30
0
0
LINE
5
147
100
AcDbEntity
8
0
100
AcDbLine
10
74.960316613116674
20
-177.67349837026035
30
0
11
54.109822104373386
21
-141.55938251818105
31
0
0
LINE
5
148
100
AcDbEntity
8
0
100
AcDbLine
10
56.454577484186416
20
-193.30924719879056
30
0
11
119.58583674373821
21
-234.48625219636023
31
0
0
LINE
5
149
100
AcDbEntity
8
0
100
AcDbLine
10
119.58583674373821
20
-234.48625219636023
30
0
11
83.594452056280147
21
-234.48637871970152
31
0
0
SPLINE
5
150
100
AcDbEntity
8
0
100
AcDbSpline
70
4
71
3
72
8
73
4
74
0
42
0.000000001
43
0.0000000001
44
0.0000000001
40
-1
40
-1
40
-1
40
-1
40
0
40
0
40
0
40
0
41
1
41
1
41
1
41
1
10
83.594452056280147
20
-234.48637871970152
30
0
10
82.673823547271454
20
-234.48667331463557
30
0
10
81.696268842560741
20
-234.18878437176846
30
0
10
80.661779463983279
20
-233.59269720648822
30
0
0
SPLINE
5
151
100
AcDbEntity
8
0
100
AcDbSpline
70
4
71
3
72
8
73
4
74
0
42
0.000000001
43
0.0000000001
44
0.0000000001
40
-1
40
-1
40
-1
40
-1
40
0
40
0
40
0
40
0
41
1
41
1
41
1
41
1
10
80.661779463983279
20
-233.59269720648822
30
0
10
79.713549912843845
20
-233.04689822179245
30
0
10
79.010615902002584
20
-232.37745175592374
30
0
10
78.551675891931779
20
-231.58254434085492
30
0
0
LINE
5
152
100
AcDbEntity
8
0
100
AcDbLine
10
78.551675891931779
20
-231.58254434085492
30
0
11
56.454577484186416
21
-193.30924719879056
31
0
0
LINE
5
153
100
AcDbEntity
8
0
100
AcDbLine
10
64.569519356938073
20
-192.5646695765725
30
0
11
100.56107391677303
21
-192.56469951064273
31
0
0
SPLINE
5
154
100
AcDbEntity
8
0
100
AcDbSpline
70
4
71
3
72
8
73
4
74
0
42
0.000000001
43
0.0000000001
44
0.0000000001
40
-1
40
-1
40
-1
40
-1
40
0
40
0
40
0
40
0
41
1
41
1
41
1
41
1
10
100.56107391677301
20
-192.56469951064275
30
0
10
101.48169562392083
20
-192.56466337603908
30
0
10
102.41612255011047
20
-192.83768110861359
30
0
10
103.36431892435354
20
-193.3837342017909
30
0
0
SPLINE
5
155
100
AcDbEntity
8
0
100
AcDbSpline
70
4
71
3
72
8
73
4
74
0
42
0.000000001
43
0.0000000001
44
0.0000000001
40
-1
40
-1
40
-1
40
-1
40
0
40
0
40
0
40
0
41
1
41
1
41
1
41
1
10
103.36431892435354
20
-193.3837342017909
30
0
10
104.39881510479185
20
-193.9795629067408
30
0
10
105.14525365005929
20
-194.67444624208386
30
0
10
105.6037527955671
20
-195.46859005733035
30
0
0
LINE
5
156
100
AcDbEntity
8
0
100
AcDbLine
10
105.60375279556709
20
-195.46859005733035
30
0
11
127.65796016823252
21
-233.66759774744693
31
0
0
LINE
5
157
100
AcDbEntity
8
0
100
AcDbLine
10
127.65796016823252
20
-233.66759774744693
30
0
11
64.569519356938073
21
-192.5646695765725
31
0
0
CIRCLE
5
158
100
AcDbEntity
8
0
100
AcDbCircle
10
149.23834242420727
20
-245.593236925024
30
0
40
1.9999999999999929
210
0
220
0
230
1
0
CIRCLE
5
159
100
AcDbEntity
8
0
100
AcDbCircle
10
-51.961657575792735
20
-29.78523692502398
30
0
40
2.9999999999999982
210
0
220
0
230
1
0
SPLINE
5
160
100
AcDbEntity
8
0
100
AcDbSpline
70
4
71
3
72
8
73
4
74
0
42
0.000000001
43
0.0000000001
44
0.0000000001
40
-0.12325396235023643
40
-0.12325396235023643
40
-0.12325396235023643
40
-0.12325396235023643
40
0
40
0
40
0
40
0
41
1
41
1
41
1
41
1
10
50.481069605870125
20
-133.00734749922313
30
0
10
50.357795598973667
20
-133.05026189071947
30
0
10
50.235827293055237
20
-133.09619250048908
30
0
10
50.115164833530805
20
-133.14513926290647
30
0
0
SPLINE
5
161
100
AcDbEntity
8
0
100
AcDbSpline
70
4
71
3
72
8
73
4
74
0
42
0.000000001
43
0.0000000001
44
0.0000000001
40
-1
40
-1
40
-1
40
-1
40
0
40
0
40
0
40
0
41
1
41
1
41
1
41
1
10
50.115164833530805
20
-133.14513926290647
30
0
10
49.13601560197673
20
-133.54235168724907
30
0
10
48.300524922843913
20
-134.08837535376381
30
0
10
47.60848550777677
20
-134.78330057121465
30
0
0
SPLINE
5
162
100
AcDbEntity
8
0
100
AcDbSpline
70
4
71
3
72
8
73
4
74
0
42
0.000000001
43
0.0000000001
44
0.0000000001
40
-1
40
-1
40
-1
40
-1
40
0
40
0
40
0
40
0
41
1
41
1
41
1
41
1
10
47.60848550777677
20
-134.78330057121465
30
0
10
46.114019315577075
20
-134.08837760223582
30
0
10
44.647808719533373
20
-133.54241167004295
30
0
10
43.210238622780473
20
-133.14517076096621
30
0
0
SPLINE
5
163
100
AcDbEntity
8
0
100
AcDbSpline
70
4
71
3
72
8
73
4
74
0
42
0.000000001
43
0.0000000001
44
0.0000000001
40
-1
40
-1
40
-1
40
-1
40
0
40
0
40
0
40
0
41
1
41
1
41
1
41
1
10
43.210238622780473
20
-133.14517076096621
30
0
10
41.830231742874929
20
-132.74806894128056
30
0
10
40.564603641320375
20
-132.54951784156947
30
0
10
39.413848169745236
20
-132.54948686973646
30
0
0
LINE
5
164
100
AcDbEntity
8
0
100
AcDbLine
10
39.413848169745251
20
-132.54948686973646
30
0
11
24.741093091360064
21
-132.54937079637071
31
0
0
SPLINE
5
165
100
AcDbEntity
8
0
100
AcDbSpline
70
4
71
3
72
8
73
4
74
0
42
0.000000001
43
0.0000000001
44
0.0000000001
40
-1
40
-1
40
-1
40
-1
40
-0.37995588020884435
40
-0.37995588020884435
40
-0.37995588020884435
40
-0.37995588020884435
41
1
41
1
41
1
41
1
10
24.741093091360064
20
-132.54937079637071
30
0
10
23.563726225403215
20
-132.54934870231409
30
0
10
22.529776879025984
20
-132.70203498954257
30
0
10
21.639291433871826
20
-133.00740287960173
30
0
0
LINE
5
166
100
AcDbEntity
8
0
100
AcDbLine
10
21.639291433871826
20
-133.00740287960173
30
0
11
-4.3799166106622556
21
-87.940812573763907
31
0
0
SPLINE
5
167
100
AcDbEntity
8
0
100
AcDbSpline
70
4
71
3
72
8
73
4
74
0
42
0.000000001
43
0.0000000001
44
0.0000000001
40
-1
40
-1
40
-1
40
-1
40
0
40
0
40
0
40
0
41
1
41
1
41
1
41
1
10
-4.3799166106622556
20
-87.940812573763907
30
0
10
-4.8384157561700691
20
-87.146668758517464
30
0
10
-4.9232473722361618
20
-86.451665134126344
30
0
10
-4.6341018645995238
20
-85.855897069017303
30
0
0
SPLINE
5
168
100
AcDbEntity
8
0
100
AcDbSpline
70
4
71
3
72
8
73
4
74
0
42
0.000000001
43
0.0000000001
44
0.0000000001
40
-1
40
-1
40
-1
40
-1
40
0
40
0
40
0
40
0
41
1
41
1
41
1
41
1
10
-4.6341018645995238
20
-85.855897069017303
30
0
10
-4.2590314170294565
20
-85.309837142320006
30
0
10
-3.6110738421405038
20
-85.036847110306894
30
0
10
-2.690335116991081
20
-85.036743415328431
30
0
0
LINE
5
169
100
AcDbEntity
8
0
100
AcDbLine
10
-2.6903351169910819
20
-85.036743415328431
30
0
11
10.169803033651498
21
-85.036821644364892
31
0
0
SPLINE
5
170
100
AcDbEntity
8
0
100
AcDbSpline
70
4
71
3
72
8
73
4
74
0
42
0.000000001
43
0.0000000001
44
0.0000000001
40
-1
40
-1
40
-1
40
-1
40
0
40
0
40
0
40
0
41
1
41
1
41
1
41
1
10
10.16980303365149
20
-85.036821644364892
30
0
10
11.090650139365168
20
-85.036909909112595
30
0
10
12.025092100025683
20
-85.309909171790025
30
0
10
12.973239131773795
20
-85.85601033235271
30
0
0
SPLINE
5
171
100
AcDbEntity
8
0
100
AcDbSpline
70
4
71
3
72
8
73
4
74
0
42
0.000000001
43
0.0000000001
44
0.0000000001
40
-1
40
-1
40
-1
40
-1
40
0
40
0
40
0
40
0
41
1
41
1
41
1
41
1
10
12.973239131773795
20
-85.85601033235271
30
0
10
14.007694171013661
20
-86.451588677427878
30
0
10
14.75419026863279
20
-87.146703107920615
30
0
10
15.212693653222939
20
-87.94085426547305
30
0
0
LINE
5
172
100
AcDbEntity
8
0
100
AcDbLine
10
15.212693653222939
20
-87.94085426547305
30
0
11
36.063188161966238
21
-124.0549701175523
31
0
0
SPLINE
5
173
100
AcDbEntity
8
0
100
AcDbSpline
70
4
71
3
72
8
73
4
74
0
42
0.000000001
43
0.0000000001
44
0.0000000001
40
-1
40
-1
40
-1
40
-1
40
0
40
0
40
0
40
0
41
1
41
1
41
1
41
1
10
36.063188161966238
20
-124.05497011755232
30
0
10
37.008974061128527
20
-125.69311934798363
30
0
10
38.329167375670991
20
-127.18233050994954
30
0
10
40.023589922885066
20
-128.52273584650877
30
0
0
SPLINE
5
174
100
AcDbEntity
8
0
100
AcDbSpline
70
4
71
3
72
8
73
4
74
0
42
0.000000001
43
0.0000000001
44
0.0000000001
40
-1
40
-1
40
-1
40
-1
40
0
40
0
40
0
40
0
41
1
41
1
41
1
41
1
10
40.023589922885066
20
-128.52273584650877
30
0
10
41.804320477590878
20
-129.91261836758045
30
0
10
43.700610302004762
20
-131.00481334639989
30
0
10
45.712843031614376
20
-131.79909929091494
30
0
0
SPLINE
5
175
100
AcDbEntity
8
0
100
AcDbSpline
70
4
71
3
72
8
73
4
74
0
42
0.000000001
43
0.0000000001
44
0.0000000001
40
-1
40
-1
40
-1
40
-1
40
-0.21310887369518902
40
-0.21310887369518902
40
-0.21310887369518902
40
-0.21310887369518902
41
1
41
1
41
1
41
1
10
45.712843031614376
20
-131.79909929091494
30
0
10
47.364017789644947
20
-132.46314234947252
30
0
10
48.953448603332276
20
-132.86583614648745
30
0
10
50.48106960587053
20
-133.00734749922302
30
0
0
SPLINE
5
176
100
AcDbEntity
8
0
100
AcDbSpline
70
4
71
3
72
8
73
4
74
0
42
0.000000001
43
0.0000000001
44
0.0000000001
40
-0.68291841983953183
40
-0.68291841983953183
40
-0.68291841983953183
40
-0.68291841983953183
40
0
40
0
40
0
40
0
41
1
41
1
41
1
41
1
10
72.765168183080661
20
-186.4587455219326
30
0
10
74.165147970461589
20
-186.13623350537367
30
0
10
75.337801885648219
20
-185.4664942735599
30
0
10
76.28329167347195
20
-184.44952174738802
30
0
0
SPLINE
5
177
100
AcDbEntity
8
0
100
AcDbSpline
70
4
71
3
72
8
73
4
74
0
42
0.000000001
43
0.0000000001
44
0.0000000001
40
-1
40
-1
40
-1
40
-1
40
-0.31705247886227428
40
-0.31705247886227428
40
-0.31705247886227428
40
-0.31705247886227428
41
1
41
1
41
1
41
1
10
76.28329167347195
20
-184.44952174738802
30
0
10
78.481655536205352
20
-185.46647880856713
30
0
10
80.466089014648958
20
-186.13628367657125
30
0
10
82.236600966304337
20
-186.45878155383923
30
0
0
LINE
5
178
100
AcDbEntity
8
0
100
AcDbLine
10
82.236600966304323
20
-186.45878155383926
30
0
11
72.765168183080661
21
-186.4587455219326
31
0
0
SPLINE
5
179
100
AcDbEntity
8
0
100
AcDbSpline
70
4
71
3
72
8
73
4
74
0
42
0.000000001
43
0.0000000001
44
0.0000000001
40
-1
40
-1
40
-1
40
-1
40
0
40
0
40
0
40
0
41
1
41
1
41
1
41
1
10
18.214873565025837
20
-136.94270302042088
30
0
10
18.096762262776377
20
-138.33254884868251
30
0
10
18.524893676245991
20
-139.87152494376255
30
0
10
19.499348489249527
20
-141.55933018956472
30
0
0
LINE
5
180
100
AcDbEntity
8
0
100
AcDbLine
10
19.499348489249527
20
-141.55933018956472
30
0
11
14.595069352570938
21
-133.06486955038554
31
0
0
LINE
5
181
100
AcDbEntity
8
0
100
AcDbLine
10
14.595069352570938
20
-133.06486955038554
30
0
11
21.478332441874542
21
-133.06484175589634
31
0
0
SPLINE
5
182
100
AcDbEntity
8
0
100
AcDbSpline
70
4
71
3
72
8
73
4
74
0
42
0.000000001
43
0.0000000001
44
0.0000000001
40
-0.34222749629981258
40
-0.34222749629981258
40
-0.34222749629981258
40
-0.34222749629981258
40
0
40
0
40
0
40
0
41
1
41
1
41
1
41
1
10
21.478332441874542
20
-133.06484175589637
30
0
10
20.996473810079941
20
-133.2436420718935
30
0
10
20.558320648141443
20
-133.46895456726884
30
0
10
20.163880754774119
20
-133.74077473943208
30
0
0
SPLINE
5
183
100
AcDbEntity
8
0
100
AcDbSpline
70
4
71
3
72
8
73
4
74
0
42
0.000000001
43
0.0000000001
44
0.0000000001
40
-1
40
-1
40
-1
40
-1
40
0
40
0
40
0
40
0
41
1
41
1
41
1
41
1
10
20.163880754774119
20
-133.74077473943208
30
0
10
19.068870987543956
20
-134.53516556762708
30
0
10
18.419298949425894
20
-135.60234065920716
30
0
10
18.214873565025837
20
-136.94270302042088
30
0
0
SPLINE
5
184
100
AcDbEntity
8
0
100
AcDbSpline
70
4
71
3
72
8
73
4
74
0
42
0.000000001
43
0.0000000001
44
0.0000000001
40
-1
40
-1
40
-1
40
-1
40
0
40
0
40
0
40
0
41
1
41
1
41
1
41
1
10
49.339432695694498
20
-190.8520207979208
30
0
10
49.221431609585771
20
-192.24205752613798
30
0
10
49.649452806914631
20
-193.78084272126245
30
0
10
50.623907619918185
20
-195.46864796706461
30
0
0
LINE
5
185
100
AcDbEntity
8
0
100
AcDbLine
10
50.623907619918185
20
-195.46864796706458
30
0
11
40.349847237063742
21
-177.67345338395654
31
0
0
SPLINE
5
186
100
AcDbEntity
8
0
100
AcDbSpline
70
4
71
3
72
8
73
4
74
0
42
0.000000001
43
0.0000000001
44
0.0000000001
40
-1
40
-1
40
-1
40
-1
40
0
40
0
40
0
40
0
41
1
41
1
41
1
41
1
10
40.349847237075153
20
-177.67345338394995
30
0
10
41.295628897155112
20
-179.31159527207527
30
0
10
42.615822211697591
20
-180.80080643404116
30
0
10
44.310244758911651
20
-182.14121177060039
30
0
0
SPLINE
5
187
100
AcDbEntity
8
0
100
AcDbSpline
70
4
71
3
72
8
73
4
74
0
42
0.000000001
43
0.0000000001
44
0.0000000001
40
-1
40
-1
40
-1
40
-1
40
0
40
0
40
0
40
0
41
1
41
1
41
1
41
1
10
44.310244758911651
20
-182.14121177060039
30
0
10
46.090977149193968
20
-183.53109323190154
30
0
10
47.987267541537193
20
-184.62329767256807
30
0
10
49.9995002711468
20
-185.41758361708315
30
0
0
SPLINE
5
188
100
AcDbEntity
8
0
100
AcDbSpline
70
4
71
3
72
8
73
4
74
0
42
0.000000001
43
0.0000000001
44
0.0000000001
40
-1
40
-1
40
-1
40
-1
40
-0.3023281480729329
40
-0.3023281480729329
40
-0.3023281480729329
40
-0.3023281480729329
41
1
41
1
41
1
41
1
10
49.9995002711468
20
-185.41758361708315
30
0
10
51.463458607389114
20
-186.00633103597073
30
0
10
52.878883509856244
20
-186.38963707658317
30
0
10
54.245746332529677
20
-186.56760471440506
30
0
0
SPLINE
5
189
100
AcDbEntity
8
0
100
AcDbSpline
70
4
71
3
72
8
73
4
74
0
42
0.000000001
43
0.0000000001
44
0.0000000001
40
-0.69767185192706282
40
-0.69767185192706282
40
-0.69767185192706282
40
-0.69767185192706282
40
0
40
0
40
0
40
0
41
1
41
1
41
1
41
1
10
54.245746332529677
20
-186.56760471440518
30
0
10
53.078389519056451
20
-186.73519162093331
30
0
10
52.092658956436836
20
-187.09613800866148
30
0
10
51.288545862501181
20
-187.6502760745816
30
0
0
SPLINE
5
190
100
AcDbEntity
8
0
100
AcDbSpline
70
4
71
3
72
8
73
4
74
0
42
0.000000001
43
0.0000000001
44
0.0000000001
40
-1
40
-1
40
-1
40
-1
40
0
40
0
40
0
40
0
41
1
41
1
41
1
41
1
10
51.288545862501181
20
-187.6502760745816
30
0
10
50.193430118212596
20
-188.44448334512697
30
0
10
49.543853841012215
20
-189.51165109440103
30
0
10
49.339432695694498
20
-190.8520207979208
30
0
0
LINE
5
191
100
AcDbEntity
8
0
100
AcDbLine
10
32.753869062503178
20
-79.155545002914337
30
0
11
36.149442763382126
21
-85.036851173681356
31
0
0
LINE
5
192
100
AcDbEntity
8
0
100
AcDbLine
10
36.149442763382126
20
-85.036851173681356
30
0
11
38.566159688183262
21
-85.036871256338941
31
0
0
SPLINE
5
193
100
AcDbEntity
8
0
100
AcDbSpline
70
4
71
3
72
8
73
4
74
0
42
0.000000001
43
0.0000000001
44
0.0000000001
40
-1
40
-1
40
-1
40
-1
40
0
40
0
40
0
40
0
41
1
41
1
41
1
41
1
10
38.566159688183262
20
-85.036871256338912
30
0
10
39.486780936436944
20
-85.036835386677851
30
0
10
40.421203623544251
20
-85.309845776946389
30
0
10
41.369423051528727
20
-85.855895349781235
30
0
0
SPLINE
5
194
100
AcDbEntity
8
0
100
AcDbSpline
70
4
71
3
72
8
73
4
74
0
42
0.000000001
43
0.0000000001
44
0.0000000001
40
-1
40
-1
40
-1
40
-1
40
0
40
0
40
0
40
0
41
1
41
1
41
1
41
1
10
41.369423051528727
20
-85.855895349781235
30
0
10
42.403895719331516
20
-86.451727840016275
30
0
10
43.150338503681283
20
-87.146618517665331
30
0
10
43.608947865329846
20
-87.940953232867344
30
0
0
LINE
5
195
100
AcDbEntity
8
0
100
AcDbLine
10
43.608947865329846
20
-87.940953232867344
30
0
11
64.459332157932394
21
-124.054878184991
31
0
0
SPLINE
5
196
100
AcDbEntity
8
0
100
AcDbSpline
70
4
71
3
72
8
73
4
74
0
42
0.000000001
43
0.0000000001
44
0.0000000001
40
-1
40
-1
40
-1
40
-1
40
0
40
0
40
0
40
0
41
1
41
1
41
1
41
1
10
64.45933215793238
20
-124.05487818499103
30
0
10
64.917945758663279
20
-124.84922024249904
30
0
10
64.959603488725449
20
-125.5193596972826
30
0
10
64.584435296706957
20
-126.06547605676353
30
0
0
SPLINE
5
197
100
AcDbEntity
8
0
100
AcDbSpline
70
4
71
3
72
8
73
4
74
0
42
0.000000001
43
0.0000000001
44
0.0000000001
40
-1
40
-1
40
-1
40
-1
40
0
40
0
40
0
40
0
41
1
41
1
41
1
41
1
10
64.584435296706957
20
-126.06547605676353
30
0
10
64.295410128366044
20
-126.6611844336891
30
0
10
63.6905845710805
20
-126.95905301830074
30
0
10
62.769853106686071
20
-126.95889798800624
30
0
0
LINE
5
198
100
AcDbEntity
8
0
100
AcDbLine
10
62.769853106686071
20
-126.95889798800624
30
0
11
48.183399783418523
21
-126.95900073067982
31
0
0
SPLINE
5
199
100
AcDbEntity
8
0
100
AcDbSpline
70
4
71
3
72
8
73
4
74
0
42
0.000000001
43
0.0000000001
44
0.0000000001
40
-1
40
-1
40
-1
40
-1
40
0
40
0
40
0
40
0
41
1
41
1
41
1
41
1
10
48.183399783418523
20
-126.95900073067982
30
0
10
47.262719796716965
20
-126.95907051299962
30
0
10
46.285165092006224
20
-126.6611815701325
30
0
10
45.250900384792615
20
-126.06548354706943
30
0
0
SPLINE
5
200
100
AcDbEntity
8
0
100
AcDbSpline
70
4
71
3
72
8
73
4
74
0
42
0.000000001
43
0.0000000001
44
0.0000000001
40
-1
40
-1
40
-1
40
-1
40
0
40
0
40
0
40
0
41
1
41
1
41
1
41
1
10
45.250900384792615
20
-126.06548354706943
30
0
10
44.302564856594756
20
-125.51950100472405
30
0
10
43.599181503025832
20
-124.84927625442099
30
0
10
43.140567902294933
20
-124.05493419691297
30
0
0
LINE
5
201
100
AcDbEntity
8
0
100
AcDbLine
10
43.14056790229494
20
-124.05493419691297
30
0
11
22.290073393551641
21
-87.940818344833716
31
0
0
SPLINE
5
202
100
AcDbEntity
8
0
100
AcDbSpline
70
4
71
3
72
8
73
4
74
0
42
0.000000001
43
0.0000000001
44
0.0000000001
40
-1
40
-1
40
-1
40
-1
40
0
40
0
40
0
40
0
41
1
41
1
41
1
41
1
10
22.290073393551641
20
-87.940818344833716
30
0
10
21.315618580548097
20
-86.253013099031563
30
0
10
19.967055064754881
20
-84.714218203433063
30
0
10
18.243775107249824
20
-83.324275469720277
30
0
0
SPLINE
5
203
100
AcDbEntity
8
0
100
AcDbSpline
70
4
71
3
72
8
73
4
74
0
42
0.000000001
43
0.0000000001
44
0.0000000001
40
-1
40
-1
40
-1
40
-1
40
0
40
0
40
0
40
0
41
1
41
1
41
1
41
1
10
18.243775107249824
20
-83.324275469720277
30
0
10
16.5493549635416
20
-81.983878535237636
30
0
10
14.667206576551585
20
-80.916618109091416
30
0
10
12.597523249741212
20
-80.122392377217409
30
0
0
SPLINE
5
204
100
AcDbEntity
8
0
100
AcDbSpline
70
4
71
3
72
8
73
4
74
0
42
0.000000001
43
0.0000000001
44
0.0000000001
40
-1
40
-1
40
-1
40
-1
40
-0.42086099614694233
40
-0.42086099614694233
40
-0.42086099614694233
40
-0.42086099614694233
41
1
41
1
41
1
41
1
10
12.597523249741212
20
-80.122392377217409
30
0
10
11.432160791194583
20
-79.66239040653646
30
0
10
10.276231799477129
20
-79.335610737345107
30
0
10
9.1296165778878464
20
-79.142019790049687
30
0
0
SPLINE
5
205
100
AcDbEntity
8
0
100
AcDbSpline
70
4
71
3
72
8
73
4
74
0
42
0.000000001
43
0.0000000001
44
0.0000000001
40
-0.92205954875914475
40
-0.92205954875914475
40
-0.92205954875914475
40
-0.92205954875914475
40
0
40
0
40
0
40
0
41
1
41
1
41
1
41
1
10
9.1296165778878553
20
-79.142019790049702
30
0
10
11.234820371159156
20
-79.034908608674627
30
0
10
12.925514699878114
20
-78.294820180315668
30
0
10
14.202087702562821
20
-76.92172227472669
30
0
0
SPLINE
5
206
100
AcDbEntity
8
0
100
AcDbSpline
70
4
71
3
72
8
73
4
74
0
42
0.000000001
43
0.0000000001
44
0.0000000001
40
-1
40
-1
40
-1
40
-1
40
0
40
0
40
0
40
0
41
1
41
1
41
1
41
1
10
14.202087702562821
20
-76.92172227472669
30
0
10
17.421018732578656
20
-78.410785512082484
30
0
10
20.181295151972257
20
-79.155575526590084
30
0
10
22.482923572018279
20
-79.155569644938737
30
0
0
LINE
5
207
100
AcDbEntity
8
0
100
AcDbLine
10
22.482923572018279
20
-79.155569644938737
30
0
11
32.753869062503178
21
-79.155545002914337
31
0
0
SPLINE
5
208
100
AcDbEntity
8
0
100
AcDbSpline
70
4
71
3
72
8
73
4
74
0
42
0.000000001
43
0.0000000001
44
0.0000000001
40
-1
40
-1
40
-1
40
-1
40
0
40
0
40
0
40
0
41
1
41
1
41
1
41
1
10
75.435020082779459
20
-236.05090400570549
30
0
10
77.215532040780289
20
-237.44040366709544
30
0
10
79.111602000842012
20
-238.53222630785083
30
0
10
81.123614298170139
20
-239.32613045245472
30
0
0
SPLINE
5
209
100
AcDbEntity
8
0
100
AcDbSpline
70
4
71
3
72
8
73
4
74
0
42
0.000000001
43
0.0000000001
44
0.0000000001
40
-1
40
-1
40
-1
40
-1
40
0
40
0
40
0
40
0
41
1
41
1
41
1
41
1
10
81.123614298170139
20
-239.32613045245472
30
0
10
83.222072515880171
20
-240.17019575734918
30
0
10
85.220710540414629
20
-240.59199915851963
30
0
10
87.120444440237051
20
-240.5935766758158
30
0
0
LINE
5
210
100
AcDbEntity
8
0
100
AcDbLine
10
87.120444440237051
20
-240.5935766758158
30
0
11
76.676830335817215
21
-240.59363379666269
31
0
0
LINE
5
211
100
AcDbEntity
8
0
100
AcDbLine
10
76.676830335817215
20
-240.59363379666269
30
0
11
71.474512344802207
21
-231.58295471909946
31
0
0
SPLINE
5
212
100
AcDbEntity
8
0
100
AcDbSpline
70
4
71
3
72
8
73
4
74
0
42
0.000000001
43
0.0000000001
44
0.0000000001
40
-1
40
-1
40
-1
40
-1
40
0
40
0
40
0
40
0
41
1
41
1
41
1
41
1
10
71.474512344802235
20
-231.58295471909946
30
0
10
72.42018378874144
20
-233.22090570726917
30
0
10
73.74004645486167
20
-234.70954416936834
30
0
10
75.435020082779459
20
-236.05090400570549
30
0
0
LINE
5
213
100
AcDbEntity
8
0
100
AcDbLine
10
-8.5384084935083582
20
-78.930949275892331
30
0
11
-16.659169665403937
21
-78.930939619377909
31
0
0
LINE
5
214
100
AcDbEntity
8
0
100
AcDbLine
10
-16.659169665403937
20
-78.930939619377909
30
0
11
-21.73135885340935
21
-70.145650240155277
31
0
0
SPLINE
5
215
100
AcDbEntity
8
0
100
AcDbSpline
70
4
71
3
72
8
73
4
74
0
42
0.000000001
43
0.0000000001
44
0.0000000001
40
-1
40
-1
40
-1
40
-1
40
0
40
0
40
0
40
0
41
1
41
1
41
1
41
1
10
-21.731358853375152
20
-70.145650240135623
30
0
10
-20.785575073754032
20
-71.783795799413937
30
0
10
-19.46537752012922
20
-73.273014303685841
30
0
10
-17.770959211997496
20
-74.613412297939064
30
0
0
SPLINE
5
216
100
AcDbEntity
8
0
100
AcDbSpline
70
4
71
3
72
8
73
4
74
0
42
0.000000001
43
0.0000000001
44
0.0000000001
40
-1
40
-1
40
-1
40
-1
40
0
40
0
40
0
40
0
41
1
41
1
41
1
41
1
10
-17.770959211997496
20
-74.613412297939064
30
0
10
-15.990226821715176
20
-76.003293759240165
30
0
10
-14.093938548913126
20
-77.095494528753747
30
0
10
-12.081705819303503
20
-77.889780473268843
30
0
0
SPLINE
5
217
100
AcDbEntity
8
0
100
AcDbSpline
70
4
71
3
72
8
73
4
74
0
42
0.000000001
43
0.0000000001
44
0.0000000001
40
-1
40
-1
40
-1
40
-1
40
-0.42120868547670642
40
-0.42120868547670642
40
-0.42120868547670642
40
-0.42120868547670642
41
1
41
1
41
1
41
1
10
-12.081705819303503
20
-77.889780473268843
30
0
10
-10.867197767603853
20
-78.378211899058897
30
0
10
-9.6860932070107655
20
-78.725248568002229
30
0
10
-8.5384084935083582
20
-78.930949275892331
30
0
0
LINE
5
218
100
AcDbEntity
8
0
100
AcDbLine
10
69.318793770502722
20
-250.59367404124072
30
0
11
149.23836977146789
21
-250.59323692494951
31
0
0
ARC
5
219
100
AcDbEntity
8
0
100
AcDbCircle
10
149.23834242420727
20
-245.593236925024
30
0
40
5.000000000000286
210
-0
220
0
230
1
100
AcDbArc
50
-89.999686623477132
51
90.000313376522541
0
LINE
5
220
100
AcDbEntity
8
0
100
AcDbLine
10
149.23831507694669
20
-240.59323692509849
30
0
11
128.29042907081055
21
-240.59335149855758
31
0
0
SPLINE
5
221
100
AcDbEntity
8
0
100
AcDbSpline
70
4
71
3
72
8
73
4
74
0
42
0.000000001
43
0.0000000001
44
0.0000000001
40
-1
40
-1
40
-1
40
-1
40
0
40
0
40
0
40
0
41
1
41
1
41
1
41
1
10
128.29042907081052
20
-240.59335149855758
30
0
10
130.24665123261462
20
-240.59311402876079
30
0
10
131.75736825391914
20
-240.1699957427976
30
0
10
132.82365128664844
20
-239.3259822820051
30
0
0
SPLINE
5
222
100
AcDbEntity
8
0
100
AcDbSpline
70
4
71
3
72
8
73
4
74
0
42
0.000000001
43
0.0000000001
44
0.0000000001
40
-1
40
-1
40
-1
40
-1
40
0
40
0
40
0
40
0
41
1
41
1
41
1
41
1
10
132.82365128664844
20
-239.3259822820051
30
0
10
133.97643828986634
20
-238.53209646625857
30
0
10
134.61248738415131
20
-237.44117651369149
30
0
10
134.73067991066074
20
-236.05128379058155
30
0
0
SPLINE
5
223
100
AcDbEntity
8
0
100
AcDbSpline
70
4
71
3
72
8
73
4
74
0
42
0.000000001
43
0.0000000001
44
0.0000000001
40
-1
40
-1
40
-1
40
-1
40
0
40
0
40
0
40
0
41
1
41
1
41
1
41
1
10
134.73067991066074
20
-236.05128379058155
30
0
10
134.93425875857463
20
-234.70961865477585
30
0
10
134.56431769947599
20
-233.22172760528605
30
0
10
133.61753561596464
20
-231.58185293294846
30
0
0
LINE
5
224
100
AcDbEntity
8
0
100
AcDbLine
10
133.61753561596461
20
-231.58185293294846
30
0
11
112.76715132336207
21
-195.46792798082481
31
0
0
SPLINE
5
225
100
AcDbEntity
8
0
100
AcDbSpline
70
4
71
3
72
8
73
4
74
0
42
0.000000001
43
0.0000000001
44
0.0000000001
40
-1
40
-1
40
-1
40
-1
40
0
40
0
40
0
40
0
41
1
41
1
41
1
41
1
10
112.76715132336207
20
-195.46792798082481
30
0
10
111.79257781605313
20
-193.77991715045511
30
0
10
110.41552521899328
20
-192.2419264269779
30
0
10
108.6348636131296
20
-190.85200409827365
30
0
0
SPLINE
5
226
100
AcDbEntity
8
0
100
AcDbSpline
70
4
71
3
72
8
73
4
74
0
42
0.000000001
43
0.0000000001
44
0.0000000001
40
-1
40
-1
40
-1
40
-1
40
0
40
0
40
0
40
0
41
1
41
1
41
1
41
1
10
108.6348636131296
20
-190.85200409827365
30
0
10
106.94035984165559
20
-189.51164565656279
30
0
10
105.0582748854016
20
-188.44436818814668
30
0
10
102.98859132914416
20
-187.65014258874396
30
0
0
SPLINE
5
227
100
AcDbEntity
8
0
100
AcDbSpline
70
4
71
3
72
8
73
4
74
0
42
0.000000001
43
0.0000000001
44
0.0000000001
40
-1
40
-1
40
-1
40
-1
40
-0.36720166002322152
40
-0.36720166002322152
40
-0.36720166002322152
40
-0.36720166002322152
41
1
41
1
41
1
41
1
10
102.98859132914416
20
-187.65014258874396
30
0
10
101.71529038701766
20
-187.14749863702437
30
0
10
100.45317913025883
20
-186.80394194443721
30
0
10
99.202246081648866
20
-186.61941960152257
30
0
0
SPLINE
5
228
100
AcDbEntity
8
0
100
AcDbSpline
70
4
71
3
72
8
73
4
74
0
42
0.000000001
43
0.0000000001
44
0.0000000001
40
-0.94161402684605966
40
-0.94161402684605966
40
-0.94161402684605966
40
-0.94161402684605966
40
0
40
0
40
0
40
0
41
1
41
1
41
1
41
1
10
99.202246081658259
20
-186.61941960151972
30
0
10
100.39362039368264
20
-186.2594180000157
30
0
10
101.35604317599439
20
-185.63543669880644
30
0
10
102.0894455815362
20
-184.74731929093113
30
0
0
SPLINE
5
229
100
AcDbEntity
8
0
100
AcDbSpline
70
4
71
3
72
8
73
4
74
0
42
0.000000001
43
0.0000000001
44
0.0000000001
40
-1
40
-1
40
-1
40
-1
40
0
40
0
40
0
40
0
41
1
41
1
41
1
41
1
10
102.0894455815362
20
-184.74731929093113
30
0
10
102.95448583155019
20
-183.85371392553088
30
0
10
103.4316218984784
20
-182.78652332944876
30
0
10
103.52062255465093
20
-181.54539151497664
30
0
0
SPLINE
5
230
100
AcDbEntity
8
0
100
AcDbSpline
70
4
71
3
72
8
73
4
74
0
42
0.000000001
43
0.0000000001
44
0.0000000001
40
-1
40
-1
40
-1
40
-1
40
0
40
0
40
0
40
0
41
1
41
1
41
1
41
1
10
103.52062255465093
20
-181.54539151497664
30
0
10
103.69589586759938
20
-180.35403140751907
30
0
10
103.38225676536565
20
-179.06332131874456
30
0
10
102.57982391357427
20
-177.67346684977949
30
0
0
LINE
5
231
100
AcDbEntity
8
0
100
AcDbLine
10
102.57982391357424
20
-177.67346684977949
30
0
11
81.729329404830963
21
-141.55935099770022
31
0
0
SPLINE
5
232
100
AcDbEntity
8
0
100
AcDbSpline
70
4
71
3
72
8
73
4
74
0
42
0.000000001
43
0.0000000001
44
0.0000000001
40
-1
40
-1
40
-1
40
-1
40
0
40
0
40
0
40
0
41
1
41
1
41
1
41
1
10
81.729329404830963
20
-141.55935099770022
30
0
10
80.754874591827416
20
-139.87154575189808
30
0
10
79.377254746458789
20
-138.33257070404886
30
0
10
77.596595033533362
20
-136.94264728245616
30
0
0
SPLINE
5
233
100
AcDbEntity
8
0
100
AcDbSpline
70
4
71
3
72
8
73
4
74
0
42
0.000000001
43
0.0000000001
44
0.0000000001
40
-1
40
-1
40
-1
40
-1
40
0
40
0
40
0
40
0
41
1
41
1
41
1
41
1
10
77.596595033533362
20
-136.94264728245616
30
0
10
75.902099740224031
20
-135.60230352535729
30
0
10
74.020000340181753
20
-134.53501481658355
30
0
10
71.950336516371635
20
-133.74077782464713
30
0
0
SPLINE
5
234
100
AcDbEntity
8
0
100
AcDbSpline
70
4
71
3
72
8
73
4
74
0
42
0.000000001
43
0.0000000001
44
0.0000000001
40
-1
40
-1
40
-1
40
-1
40
-0.4579858041614942
40
-0.4579858041614942
40
-0.4579858041614942
40
-0.4579858041614942
41
1
41
1
41
1
41
1
10
71.950336516371635
20
-133.74077782464713
30
0
10
70.859758443384152
20
-133.31035497502614
30
0
10
69.777338637704418
20
-132.99653264901741
30
0
10
68.703107853430254
20
-132.79937103303195
30
0
0
SPLINE
5
235
100
AcDbEntity
8
0
100
AcDbSpline
70
4
71
3
72
8
73
4
74
0
42
0.000000001
43
0.0000000001
44
0.0000000001
40
-0.54201419583850552
40
-0.54201419583850552
40
-0.54201419583850552
40
-0.54201419583850552
40
0
40
0
40
0
40
0
41
1
41
1
41
1
41
1
10
68.703107853430254
20
-132.79937103303195
30
0
10
69.542547880293284
20
-132.58986312803376
30
0
10
70.25124998930265
20
-132.25638741572178
30
0
10
70.829200976363097
20
-131.79891410718113
30
0
0
SPLINE
5
236
100
AcDbEntity
8
0
100
AcDbSpline
70
4
71
3
72
8
73
4
74
0
42
0.000000001
43
0.0000000001
44
0.0000000001
40
-1
40
-1
40
-1
40
-1
40
0
40
0
40
0
40
0
41
1
41
1
41
1
41
1
10
70.829200976363097
20
-131.79891410718113
30
0
10
71.98185803099291
20
-131.00484878401272
30
0
10
72.617133099751612
20
-129.91257440289021
30
0
10
72.73532562626103
20
-128.52268167978022
30
0
0
SPLINE
5
237
100
AcDbEntity
8
0
100
AcDbSpline
70
4
71
3
72
8
73
4
74
0
42
0.000000001
43
0.0000000001
44
0.0000000001
40
-1
40
-1
40
-1
40
-1
40
0
40
0
40
0
40
0
41
1
41
1
41
1
41
1
10
72.73532562626103
20
-128.52268167978022
30
0
10
72.939674094221843
20
-127.18235393655208
30
0
10
72.568960733413718
20
-125.69312704274337
30
0
10
71.6231705951691
20
-124.05497047000605
30
0
0
LINE
5
238
100
AcDbEntity
8
0
100
AcDbLine
10
71.6231705951691
20
-124.05497047000605
30
0
11
50.772680325508134
21
-87.94086196023278
31
0
0
SPLINE
5
239
100
AcDbEntity
8
0
100
AcDbSpline
70
4
71
3
72
8
73
4
74
0
42
0.000000001
43
0.0000000001
44
0.0000000001
40
-1
40
-1
40
-1
40
-1
40
0
40
0
40
0
40
0
41
1
41
1
41
1
41
1
10
50.772680325508134
20
-87.940861960232795
30
0
10
49.798225512504601
20
-86.253056714430613
30
0
10
48.420724361441387
20
-84.714287251148974
30
0
10
46.639950193292876
20
-83.324165587294715
30
0
0
SPLINE
5
240
100
AcDbEntity
8
0
100
AcDbSpline
70
4
71
3
72
8
73
4
74
0
42
0.000000001
43
0.0000000001
44
0.0000000001
40
-1
40
-1
40
-1
40
-1
40
0
40
0
40
0
40
0
41
1
41
1
41
1
41
1
10
46.639950193292876
20
-83.324165587294715
30
0
10
44.945560877041956
20
-81.984005387845428
30
0
10
43.063465716082007
20
-80.916724021377718
30
0
10
40.993691676131156
20
-80.122296129485662
30
0
0
SPLINE
5
241
100
AcDbEntity
8
0
100
AcDbSpline
70
4
71
3
72
8
73
4
74
0
42
0.000000001
43
0.0000000001
44
0.0000000001
40
-1
40
-1
40
-1
40
-1
40
-0.35734561364254314
40
-0.35734561364254314
40
-0.35734561364254314
40
-0.35734561364254314
41
1
41
1
41
1
41
1
10
40.993691676131156
20
-80.122296129485662
30
0
10
39.700617089428818
20
-79.611953163524291
30
0
10
38.419009910627338
20
-79.265527989871913
30
0
10
37.148924778060255
20
-79.083126777522622
30
0
0
SPLINE
5
242
100
AcDbEntity
8
0
100
AcDbSpline
70
4
71
3
72
8
73
4
74
0
42
0.000000001
43
0.0000000001
44
0.0000000001
40
-0.93425630416892336
40
-0.93425630416892336
40
-0.93425630416892336
40
-0.93425630416892336
40
0
40
0
40
0
40
0
41
1
41
1
41
1
41
1
10
37.148924778077379
20
-79.083126777517364
30
0
10
38.327443620766381
20
-78.721851819078395
30
0
10
39.280574212143506
20
-78.100704865552061
30
0
10
40.00824584970939
20
-77.21952716057578
30
0
0
SPLINE
5
243
100
AcDbEntity
8
0
100
AcDbSpline
70
4
71
3
72
8
73
4
74
0
42
0.000000001
43
0.0000000001
44
0.0000000001
40
-1
40
-1
40
-1
40
-1
40
0
40
0
40
0
40
0
41
1
41
1
41
1
41
1
10
40.00824584970939
20
-77.21952716057578
30
0
10
40.873277621558671
20
-76.325907110563577
30
0
10
41.350417927569268
20
-75.258723856787441
30
0
10
41.439418583741784
20
-74.017592042315329
30
0
0
SPLINE
5
244
100
AcDbEntity
8
0
100
AcDbSpline
70
4
71
3
72
8
73
4
74
0
42
0.000000001
43
0.0000000001
44
0.0000000001
40
-1
40
-1
40
-1
40
-1
40
0
40
0
40
0
40
0
41
1
41
1
41
1
41
1
10
41.439418583741784
20
-74.017592042315329
30
0
10
41.614687657607909
20
-72.826224592551768
30
0
10
41.301052794456503
20
-71.535521846083185
30
0
10
40.498615703582779
20
-70.145660034812153
30
0
0
LINE
5
245
100
AcDbEntity
8
0
100
AcDbLine
10
40.498615703582779
20
-70.145660034812153
30
0
11
19.648123314380662
21
-34.031547853885883
31
0
0
SPLINE
5
246
100
AcDbEntity
8
0
100
AcDbSpline
70
4
71
3
72
8
73
4
74
0
42
0.000000001
43
0.0000000001
44
0.0000000001
40
-1
40
-1
40
-1
40
-1
40
0
40
0
40
0
40
0
41
1
41
1
41
1
41
1
10
19.648123314380655
20
-34.031547853885883
30
0
10
18.673666381835943
20
-32.343738936930734
30
0
10
17.296055014631982
20
-30.80477857369349
30
0
10
15.515395301706556
20
-29.41485515210082
30
0
0
SPLINE
5
247
100
AcDbEntity
8
0
100
AcDbSpline
70
4
71
3
72
8
73
4
74
0
42
0.000000001
43
0.0000000001
44
0.0000000001
40
-1
40
-1
40
-1
40
-1
40
0
40
0
40
0
40
0
41
1
41
1
41
1
41
1
10
15.515395301706556
20
-29.41485515210082
30
0
10
13.820894709544296
20
-28.074502217119431
30
0
10
11.938798488813774
20
-27.007219015075215
30
0
10
9.8691346650036671
20
-26.212982023138757
30
0
0
SPLINE
5
248
100
AcDbEntity
8
0
100
AcDbSpline
70
4
71
3
72
8
73
4
74
0
42
0.000000001
43
0.0000000001
44
0.0000000001
40
-1
40
-1
40
-1
40
-1
40
0
40
0
40
0
40
0
41
1
41
1
41
1
41
1
10
9.8691346650036671
20
-26.212982023138757
30
0
10
7.8569404825004732
20
-25.418673823441409
30
0
10
5.8727335995644756
20
-25.021640161596316
30
0
10
3.9163839256252624
20
-25.021699164719855
30
0
0
LINE
5
249
100
AcDbEntity
8
0
100
AcDbLine
10
3.9163839256252619
20
-25.021699164719863
30
0
11
-8.7713165057157241
21
-25.021637878347995
31
0
0
SPLINE
5
250
100
AcDbEntity
8
0
100
AcDbSpline
70
4
71
3
72
8
73
4
74
0
42
0.000000001
43
0.0000000001
44
0.0000000001
40
-1
40
-1
40
-1
40
-1
40
0
40
0
40
0
40
0
41
1
41
1
41
1
41
1
10
-8.7713165057157259
20
-25.021637878347995
30
0
10
-9.9221312456240334
20
-25.021639901385416
30
0
10
-10.987074391455984
20
-25.220202062072374
30
0
10
-11.966061392560604
20
-25.617301243138698
30
0
0
SPLINE
5
251
100
AcDbEntity
8
0
100
AcDbSpline
70
4
71
3
72
8
73
4
74
0
42
0.000000001
43
0.0000000001
44
0.0000000001
40
-1
40
-1
40
-1
40
-1
40
0
40
0
40
0
40
0
41
1
41
1
41
1
41
1
10
-11.966061392560604
20
-25.617301243138698
30
0
10
-12.945230759755784
20
-26.014478791527882
30
0
10
-13.780724618200352
20
-26.560496951313141
30
0
10
-14.472727471182349
20
-27.255485496153092
30
0
0
SPLINE
5
252
100
AcDbEntity
8
0
100
AcDbSpline
70
4
71
3
72
8
73
4
74
0
42
0.000000001
43
0.0000000001
44
0.0000000001
40
-1
40
-1
40
-1
40
-1
40
0
40
0
40
0
40
0
41
1
41
1
41
1
41
1
10
-14.472727471182349
20
-27.255485496153092
30
0
10
-15.967228635811319
20
-26.560501953149895
30
0
10
-17.433451949102029
20
-26.014513994039067
30
0
10
-18.870985483769772
20
-25.617336412351449
30
0
0
SPLINE
5
253
100
AcDbEntity
8
0
100
AcDbSpline
70
4
71
3
72
8
73
4
74
0
42
0.000000001
43
0.0000000001
44
0.0000000001
40
-1
40
-1
40
-1
40
-1
40
0
40
0
40
0
40
0
41
1
41
1
41
1
41
1
10
-18.870985483769772
20
-25.617336412351449
30
0
10
-20.251027336104592
20
-25.220174018641423
30
0
10
-21.516623644541617
20
-25.021677986225214
30
0
10
-22.667368518410917
20
-25.021665370157162
30
0
0
LINE
5
254
100
AcDbEntity
8
0
100
AcDbLine
10
-22.667368518410917
20
-25.021665370157162
30
0
11
-37.340098427244712
21
-25.021592891733199
31
0
0
SPLINE
5
255
100
AcDbEntity
8
0
100
AcDbSpline
70
4
71
3
72
8
73
4
74
0
42
0.000000001
43
0.0000000001
44
0.0000000001
40
-1
40
-1
40
-1
40
-1
40
0
40
0
40
0
40
0
41
1
41
1
41
1
41
1
10
-37.340098427244712
20
-25.021592891733199
30
0
10
-39.23891946718026
20
-25.021596494141306
30
0
10
-40.764714616293666
20
-25.418780977197095
30
0
10
-41.917282547438866
20
-26.2130457070188
30
0
0
SPLINE
5
256
100
AcDbEntity
8
0
100
AcDbSpline
70
4
71
3
72
8
73
4
74
0
42
0.000000001
43
0.0000000001
44
0.0000000001
40
-1
40
-1
40
-1
40
-1
40
0
40
0
40
0
40
0
41
1
41
1
41
1
41
1
10
-41.917282547438866
20
-26.2130457070188
30
0
10
-43.012352390414023
20
-27.007332480971154
30
0
10
-43.661906611139131
20
-28.074538433181047
30
0
10
-43.866331200711251
20
-29.414902171077166
30
0
0
SPLINE
5
257
100
AcDbEntity
8
0
100
AcDbSpline
70
4
71
3
72
8
73
4
74
0
42
0.000000001
43
0.0000000001
44
0.0000000001
40
-1
40
-1
40
-1
40
-1
40
0
40
0
40
0
40
0
41
1
41
1
41
1
41
1
10
-43.866331200711251
20
-29.414902171077166
30
0
10
-43.984408325359368
20
-30.80480719668078
30
0
10
-43.556309499835216
20
-32.343726847783586
30
0
10
-42.581854421889041
20
-34.031532552479874
30
0
0
LINE
5
258
100
AcDbEntity
8
0
100
AcDbLine
10
-42.581854421889041
20
-34.031532552479874
30
0
11
-46.765505153086735
21
-26.785236925022854
31
0
0
ARC
5
259
100
AcDbEntity
8
0
100
AcDbCircle
10
-51.961657575792735
20
-29.78523692502398
30
0
40
6.0000000000000151
210
0
220
-0
230
1
100
AcDbArc
50
30.000000000012331
51
210.00000000001188
0
LINE
5
260
100
AcDbEntity
8
0
100
AcDbLine
10
-57.157809998498763
20
-32.785236925025067
30
0
11
67.439238790842097
21
-248.5936559011962
31
0
0
ARC
5
261
100
AcDbEntity
8
0
100
AcDbCircle
10
72.63539121354809
20
-245.59365590119509
30
0
40
6.0000000000000062
210
0
220
0
230
1
100
AcDbArc
50
210.00000000001219
51
236.4430036146002
0
ENDSEC
0
SECTION
2
OBJECTS
0
DICTIONARY
5
C
100
AcDbDictionary
3
ACAD_GROUP
350
D
3
ACAD_MLINESTYLE
350
17
0
DICTIONARY
5
D
100
AcDbDictionary
0
DICTIONARY
5
1A
330
C
100
AcDbDictionary
0
DICTIONARY
5
17
100
AcDbDictionary
0
ENDSEC
0
EOF
